<svg id="Layer_1" data-name="Layer 1" xmlns="http://www.w3.org/2000/svg" width="1000" height="666.6667" viewBox="0 0 1000 666.6667"><defs><style>.cls-1{fill:#ebebeb;}.cls-2{fill:#e0e0e0;}.cls-3{fill:#f5f5f5;}.cls-4{fill:#263238;}.cls-5{fill:#413e66;}.cls-6{fill:#8400c9;}.cls-7{fill:#42006d;isolation:isolate;}.cls-15,.cls-7{opacity:0.3;}.cls-8{opacity:0.5;}.cls-9{fill:#1bb1dc;}.cls-10{opacity:0.4;}.cls-11{fill:#fff;}.cls-12{fill:#eb996e;}.cls-13{fill:#455a64;}.cls-14{fill:#ffbe9d;}.cls-16{fill:#150326;}.cls-17{opacity:0.6;}.cls-18{fill:#e8505b;}.cls-19{fill:#f2f2f2;}</style></defs><g id="Background_Complete" data-name="Background Complete"><path class="cls-1" d="M188.3334,163.654l54.52-4.5288A54.7079,54.7079,0,1,1,157.4458,118.5Z"/><rect class="cls-2" x="94.5041" y="565.1692" width="22.7606" height="28.6982"/><rect class="cls-2" x="126.1712" y="523.1115" width="21.2761" height="70.7559"/><rect class="cls-2" x="156.9503" y="550.9832" width="21.4689" height="42.8842"/><rect class="cls-2" x="187.6203" y="532.5812" width="22.389" height="61.2862"/><path class="cls-1" d="M786.8331,45.8289S917.9785,64.9818,906.7887,187.0078l-135.0326-8.9746Z"/><path class="cls-2" d="M330.7414,304.642l-9.5943-19.016a27.1785,27.1785,0,0,0-12.6929,13.9491,25.1917,25.1917,0,0,0,2.2233,23.5233,30.1308,30.1308,0,0,0,1.8211,2.5509c.016.02.03.0405.0458.0606l.0023-.002,20.42-16.5833Z"/><path class="cls-1" d="M351.518,287.0081a25.2659,25.2659,0,0,0-25.0009-3.7787c-.253.0954-.5061.1937-.76.2975-.16.0657-.32.1257-.4807.1948q-.7011.3012-1.4047.6471c-.0212.0106-.0426.019-.064.0295l-.0032.0015c-.02.01-.0392.0174-.0588.0271l.0015.0031h0l9.5943,19.0159,2.2547,4.4687,25.4843-6.3971.0314-.0078h0a25.3314,25.3314,0,0,0-1.9448-5.2A27.634,27.634,0,0,0,351.518,287.0081Z"/><path class="cls-3" d="M335.3808,310.8947l-20.42,16.5834a26.3059,26.3059,0,0,0,45.9337-22.9943L335.41,310.8809"/><polygon class="cls-2" points="466.429 424.573 459.302 422.213 452.175 419.852 453.693 427.205 455.213 434.558 459.089 431.107 475.776 449.853 479.239 446.77 462.552 428.024 466.429 424.573"/><path class="cls-2" d="M910.3379,370.9013h46.9054a46.9054,46.9054,0,1,1-47.99-46.893Z"/><path class="cls-3" d="M922.9807,359.4666l-1.06-46.9056c12.2143,0,25.0179,4.771,33.7717,13.2893a48.2242,48.2242,0,0,1,14.1761,32.8882Z"/></g><g id="Charts"><path class="cls-4" d="M645.8682,182.7351a3.5026,3.5026,0,0,1-.0415-.5741c-.0114-.4283-.0255-.9509-.0426-1.5878-.0236-1.46-.0556-3.4417-.0953-5.9091-.0443-5.1087-.1063-12.2141-.18-20.627l.3588.3588-22.758.0417c-.091.0859.7566-.7557.3982-.3954v1.9765l-.0009,1.9649q-.0016,1.9548-.0034,3.8674c-.0045,2.5478-.0089,5.0345-.0134,7.4468-.0178,4.8142-.0348,9.3287-.05,13.4372l-.3325-.3324c6.7542.071,12.3814.13,16.4251.1724l4.6429.0858a16.7456,16.7456,0,0,1,1.6923.0745,12.1593,12.1593,0,0,1-1.5582.0745l-4.568.0857-16.6342.1723-.3315.0036-.0014-.3364c-.0152-4.1085-.0321-8.623-.05-13.4372-.0042-2.4123-.0088-4.899-.0134-7.4468q-.0015-1.9116-.0033-3.8674-.0006-.9774-.001-1.9649v-1.9766c-.3576.3559.4866-.4943.4032-.406l22.758.0417.3622.0006-.003.3586c-.0733,8.5078-.1351,15.6934-.18,20.86-.04,2.4335-.0717,4.3879-.0953,5.8277-.017.6088-.0311,1.108-.0426,1.5172A1.9825,1.9825,0,0,1,645.8682,182.7351Z"/><path class="cls-4" d="M676.0508,182.7351a2.402,2.402,0,0,1-.0249-.3732c-.0065-.2769-.0148-.6218-.0248-1.05q-.0185-1.4508-.0508-4.0115c-.0262-3.5277-.0636-8.5655-.11-14.8484-.0448-12.63-.1073-30.2526-.1792-50.4729l.39.39c-6.7639.0036-13.9168.0073-21.2716.011.7919-.8025.22-.2106.3962-.3841v5.31q-.0009,2.6459-.002,5.2505-.0039,5.207-.0077,10.2247c-.01,6.68-.02,13.0777-.0292,19.101-.0416,12.0216-.0778,22.5473-.1066,30.853l-.2543-.2544,15.5923.14,4.1981.0621,1.0967.0268a2.5168,2.5168,0,0,1,.3889.0257,1.547,1.547,0,0,1-.3389.0257c-.2759.0069-.6214.0157-1.0516.0268l-4.1413.0622c-3.7166.0329-9.0471.08-15.7443.14l-.2538.0022-.0009-.257c-.0286-8.3057-.0651-18.8314-.1065-30.853-.0092-6.0233-.0191-12.4206-.0294-19.101q-.0036-5.0121-.0077-10.2247-.0009-2.6037-.0018-5.2505,0-1.3231-.0006-2.6559v-2.6538c.1808-.1838-.4044.3816.4052-.4174,7.3548.0039,14.5077.0074,21.2716.011h.3915l-.0014.39c-.0718,20.3284-.1343,38.045-.1791,50.7425-.0467,6.245-.0841,11.2525-.11,14.7587q-.0326,2.5056-.0508,3.9283c-.01.4086-.0183.7381-.0248,1.0024A1.4258,1.4258,0,0,1,676.0508,182.7351Z"/><path class="cls-4" d="M707.0227,182.7351a6.8538,6.8538,0,0,1-.0458-.8605c-.0118-.6123-.0274-1.408-.0468-2.403-.0251-2.1529-.06-5.162-.1034-8.9168-.0451-7.6352-.1081-18.2871-.1816-30.7037l.3775.3775-21.4657.0229c-.0933.0852.7569-.7523.3976-.3916v3.0735l-.0014,3.0479q-.0028,3.0274-.0053,5.9685c-.007,3.9165-.0138,7.7054-.02,11.3308-.028,7.2341-.0534,13.8119-.0753,19.4542l-.2978-.2976c6.5251.0666,11.84.1208,15.6088.1594l4.31.0746,1.14.0325a2.3549,2.3549,0,0,1,.41.0314,12.0569,12.0569,0,0,1-1.4345.0639l-4.243.0746c-3.8124.0385-9.19.0926-15.7911.1593l-.297.003-.0011-.3011c-.0219-5.6423-.0474-12.22-.0754-19.4542-.0064-3.6254-.0131-7.4143-.02-11.3308q-.0026-2.9387-.0053-5.9685l-.0013-3.0479V139.86c-.3568.3554.4849-.4988.4038-.41l21.4657.0231h.38l-.002.3775c-.0735,12.5188-.1365,23.2584-.1814,30.9564-.0436,3.7186-.0785,6.6988-.1036,8.8309-.0192.963-.0349,1.7328-.0468,2.3254A4.5393,4.5393,0,0,1,707.0227,182.7351Z"/><path class="cls-4" d="M738.6129,182.7351a1.8614,1.8614,0,0,1-.0244-.3233c-.0064-.2444-.0143-.5412-.0241-.9047q-.018-1.2656-.0493-3.4559c-.0256-3.0515-.0623-7.3919-.108-12.8116-.0449-10.9194-.1077-26.1744-.18-43.7906l.3859.386c-7.0224.0044-14.5786.01-22.385.0146.7928-.8028.22-.2124.3968-.3869v4.5105q-.0009,2.2489-.0018,4.465-.0033,4.4312-.0065,8.7152c-.009,5.7043-.0177,11.19-.0259,16.39-.0359,10.3816-.0678,19.619-.094,27.1911l-.2717-.2716,16.3511.148,4.4526.067,1.169.0291a2.6964,2.6964,0,0,1,.4163.0278,1.6158,1.6158,0,0,1-.362.0279c-.2953.0075-.6635.017-1.12.0289q-1.5885.024-4.3916.0669l-16.515.1481-.271.0024-.001-.2745c-.0263-7.5721-.0583-16.81-.0941-27.1911-.0082-5.2-.0168-10.686-.0257-16.39q-.0033-4.28-.0068-8.7152-.0008-2.2158-.0017-4.465l-.0005-2.2567v-2.2538c.1805-.1829-.404.3841.4047-.4145l22.3851.0147h.3875l-.0015.3857c-.0725,17.7222-.1354,33.0693-.18,44.0542-.0457,5.3825-.0823,9.693-.1078,12.7233q-.0313,2.1406-.0494,3.3746A9.5925,9.5925,0,0,1,738.6129,182.7351Z"/><path class="cls-4" d="M350.1313,492.9442s.5243-.0249,1.5689-.0374q1.601-.0126,4.6471-.0372l17.9124-.0765,65.9615-.143-.2941.294a89.5,89.5,0,0,0-8.8316-38.5015,93.4058,93.4058,0,0,0-11.873-18.4885,91.9369,91.9369,0,0,0-16.9726-15.817,90.776,90.776,0,0,0-21.4439-11.43,95.85,95.85,0,0,0-12.0625-3.4806,88.0752,88.0752,0,0,0-12.6621-1.7561,88.9741,88.9741,0,0,0-50.9732,12.0747,91.0535,91.0535,0,0,0-35.6651,38.4506,88.6986,88.6986,0,0,0-8.4858,48.3477,90.0353,90.0353,0,0,0,44.7851,68.6577l-.4011.11c13.8062-24.1557,24.989-43.7216,32.7323-57.2694,3.8656-6.7308,6.87-11.9625,8.92-15.532q1.525-2.6324,2.3295-4.0209c.5272-.9017.8078-1.345.8078-1.345s-.2517.4932-.7638,1.4191q-.7867,1.4092-2.2832,4.09c-2.0245,3.5954-4.9916,8.8653-8.809,15.6452-7.67,13.5558-18.7471,33.1335-32.4225,57.3035l-.146.2581-.2553-.1479a90.5694,90.5694,0,0,1-45.2346-69.0907,89.3761,89.3761,0,0,1,8.5193-48.7711,91.7615,91.7615,0,0,1,35.9664-38.7964,89.749,89.749,0,0,1,64.2043-10.3888,96.51,96.51,0,0,1,12.1652,3.52A91.4289,91.4289,0,0,1,402.685,419.533a92.5424,92.5424,0,0,1,17.0873,15.9659,93.9559,93.9559,0,0,1,11.9336,18.65,89.9649,89.9649,0,0,1,8.81,38.7951l-.0011.295-.2931-.0007-65.8381-.1431-17.9558-.0763-4.6847-.0374C350.6846,492.9693,350.1313,492.9442,350.1313,492.9442Z"/><path class="cls-5" d="M628.612,550.9478l41.4572-6.3346a41.9378,41.9378,0,1,1-36.8526-35.35Z"/><path class="cls-5" d="M642.0635,509.3957,637.03,541.5324l31.5453-5.9241S663.9367,517.5981,642.0635,509.3957Z"/><path class="cls-6" d="M540.3835,270.062,657.0717,339.25a135.7981,135.7981,0,0,1-116.6882,66.47c-74.42,0-135.658-61.2382-135.658-135.658,0-73.6606,59.995-134.5515,133.6474-135.6433Z"/><path class="cls-7" d="M414.07,220.8428l68.1738-5.9778-15.5628-58.46S431.13,179.97,414.07,220.8428Z"/></g><g id="Character_2" data-name="Character 2"><path class="cls-6" d="M981.1711,499.8469l-12.9624-.6912,1.1393-24.289,18.9746.81.026,1.51c.0577,6.72-.18,34.1716-1.7483,38.5884C984.85,520.7019,981.1711,499.8469,981.1711,499.8469Z"/><g class="cls-8"><path class="cls-9" d="M987.7189,484.4745a8.4344,8.4344,0,0,1-5.0334-3.3422,8.1932,8.1932,0,0,1-1.4993-5.76l6.7885.3133Z"/></g><g class="cls-10"><path class="cls-11" d="M983.3283,510.0537s1.7473,7.3309,2.981,6.4844,2.5174-28.5789,2.0135-40.8611l-.5447.0134-1.2219,32.3609S983.4537,508.6424,983.3283,510.0537Z"/></g><path class="cls-4" d="M987.7807,475.3083a2.2283,2.2283,0,0,1,.026.42c.0053.361.0106.7565.0168,1.2027-.0037,1.2022-.0086,2.68-.0143,4.4235-.0385,3.7348-.16,8.8943-.4187,14.5878-.26,5.6952-.6079,10.8449-.9092,14.5678-.1527,1.737-.2824,3.2089-.3878,4.4061-.0469.4439-.0881.837-.1261,1.1963a2.2936,2.2936,0,0,1-.0637.4152,2.224,2.224,0,0,1,.0044-.42c.0214-.3607.0447-.7552.0711-1.2006.08-1.1989.1784-2.6727.2942-4.4122.2481-3.7253.5627-8.8739.8228-14.5659.2583-5.69.4129-10.8456.5048-14.5782.0426-1.7429.0786-3.2195.1078-4.4207.0144-.4462.0268-.8412.0387-1.2022A2.2776,2.2776,0,0,1,987.7807,475.3083Z"/><path class="cls-4" d="M986.9337,508.0624a6.4233,6.4233,0,0,0-3.9052,2.1538A3.9283,3.9283,0,0,1,986.9337,508.0624Z"/><path class="cls-4" d="M983.63,500.7271c.04.0707-.3929.3941-.9675.7227s-1.0732.5375-1.1135.4669.3927-.3943.9672-.7228S983.5891,500.6565,983.63,500.7271Z"/><path class="cls-4" d="M982.6807,498.7122c.0577.0572-.2157.4287-.611.83s-.7628.68-.8208.6228.2155-.4286.6109-.83S982.6227,498.6553,982.6807,498.7122Z"/><path class="cls-4" d="M980.4456,497.3628a5.5517,5.5517,0,1,1-.1917,1.2643A2.8548,2.8548,0,0,1,980.4456,497.3628Z"/><path class="cls-4" d="M978.8487,496.861a3.5741,3.5741,0,0,1,.0835,2.8845Q978.91,498.3028,978.8487,496.861Z"/><path class="cls-4" d="M981.4724,501.4529a4.5,4.5,0,0,1-.082,1.56,9.1313,9.1313,0,0,1-.4433,1.6447,4.5612,4.5612,0,0,1-.4359.933.8454.8454,0,0,1-.5027.3639.6152.6152,0,0,1-.6129-.2654,2.8652,2.8652,0,0,1,1.0009-3.5009,2.7988,2.7988,0,0,1,1.0652-.4612.8686.8686,0,0,1,.4236-.0207,4.4149,4.4149,0,0,0-1.3645.6493,2.819,2.819,0,0,0-.9281,1.2931,2.4228,2.4228,0,0,0,.04,1.8662c.1722.2563.4681.1732.6451-.0947a4.6654,4.6654,0,0,0,.4154-.86,10.7717,10.7717,0,0,0,.4926-1.5881C981.3954,502.0456,981.4244,501.45,981.4724,501.4529Z"/><path class="cls-4" d="M981.5311,501.8608a1.54,1.54,0,0,1-1.092.13,2.5591,2.5591,0,0,1-1.12-.4791,1.5676,1.5676,0,0,1-.7356-1.3361.6218.6218,0,0,1,.7429-.4478,1.7074,1.7074,0,0,1,.6853.2976,4.7316,4.7316,0,0,1,.91.7808,2.2563,2.2563,0,0,1,.59.9225c-.0394.0256-.2657-.3241-.74-.7773a5.46,5.46,0,0,0-.9064-.6967c-.32-.23-.9055-.4037-.9947-.0156-.0557.389.3146.8059.615,1.0589a2.5709,2.5709,0,0,0,.9943.4884A5.6888,5.6888,0,0,0,981.5311,501.8608Z"/><path class="cls-4" d="M981.1119,475.4965c.0546.0079-.0985.6927-.02,1.7965a7.6177,7.6177,0,0,0,4.7764,6.5968c1.0242.4188,1.7222.4872,1.7128.5416a1.404,1.404,0,0,1-.49-.022,6.4,6.4,0,0,1-1.2978-.3254,7.39,7.39,0,0,1-4.91-6.7806,6.4084,6.4084,0,0,1,.0961-1.3343A1.4065,1.4065,0,0,1,981.1119,475.4965Z"/><path class="cls-4" d="M970.8875,477.546a84.7125,84.7125,0,0,1,9.9879.3356A84.777,84.777,0,0,1,970.8875,477.546Z"/><path class="cls-4" d="M985.2092,487.4215a19.9712,19.9712,0,0,1-.2613,7.1012c-.085-.012.0855-1.5934.1545-3.55C985.1773,489.0171,985.1238,487.4271,985.2092,487.4215Z"/><path class="cls-4" d="M985.4225,482.6607c.0621-.0563.33.1454.6866.3242.3543.1839.6749.2824.6657.3658-.0042.0785-.3895.1074-.8-.1031C985.5642,483.0393,985.3612,482.71,985.4225,482.6607Z"/><path class="cls-4" d="M983.2729,480.7633c.06-.0554.3055.1133.5484.3763s.3918.521.3319.5764-.3051-.1132-.5486-.3765S983.2132,480.8184,983.2729,480.7633Z"/><path class="cls-4" d="M982.3716,478.1489c.0817.0207.0637.3434.1729.706.1005.365.2872.6286.229.69-.0475.0631-.3839-.1574-.5121-.6082C982.13,478.4866,982.2976,478.1207,982.3716,478.1489Z"/><path class="cls-4" d="M981.9749,476.299c.0771-.0258.1954.12.2642.3247s.062.3924-.015.4184-.1952-.1194-.2643-.3248S981.8978,476.3249,981.9749,476.299Z"/><path class="cls-6" d="M890.9742,622.372l-7.8608-10.33,19.256-14.8483,11.66,14.9912-1.1349.9971c-5.086,4.3923-26.17,21.9743-30.552,23.6365C877.4544,638.6719,890.9742,622.372,890.9742,622.372Z"/><g class="cls-8"><path class="cls-9" d="M906.9314,617.4173a8.4338,8.4338,0,0,1-.7088-6,8.1937,8.1937,0,0,1,3.4216-4.87l4.1537,5.3785Z"/></g><g class="cls-10"><path class="cls-11" d="M884.5881,630.6213s-4.4588,6.0759-3.015,6.4686,23.4182-16.5733,32.4564-24.9049l-.3626-.4064-25.4636,20.0081S885.7451,629.8038,884.5881,630.6213Z"/></g><path class="cls-4" d="M913.96,611.5333a2.2267,2.2267,0,0,1-.3032.2913c-.2719.2377-.57.4977-.906.7911l-3.3819,2.8514c-2.8725,2.3872-6.885,5.6331-11.3932,9.12-4.51,3.4869-8.6617,6.554-11.6951,8.7333l-3.61,2.5554-.9936.6779a.2105.2105,0,1,1-.0346-.0484l.9613-.7226,3.5542-2.6306c3.0009-2.2215,7.13-5.3133,11.638-8.7981,4.5056-3.4851,8.5362-6.703,11.4415-9.0481q2.0346-1.6431,3.44-2.7784c.35-.2777.6588-.5238.9416-.7483A2.2827,2.2827,0,0,1,913.96,611.5333Z"/><path class="cls-4" d="M888.4393,632.0817a6.4226,6.4226,0,0,0-4.1692-1.5838A3.9285,3.9285,0,0,1,888.4393,632.0817Z"/><path class="cls-4" d="M891.8938,624.816a2.5637,2.5637,0,0,1-1.1769-.27c-.6223-.2254-1.1042-.47-1.0765-.5469a2.5663,2.5663,0,0,1,1.1769.27C891.44,624.4945,891.9215,624.74,891.8938,624.816Z"/><path class="cls-4" d="M892.816,622.7889c-.0061.0811-.4664.1129-1.0279.0709s-1.0119-.1416-1.0059-.2228.4662-.113,1.0277-.0711S892.822,622.7076,892.816,622.7889Z"/><path class="cls-4" d="M892.3987,620.2116c.0506.064-.3548.4683-.9053.9033s-1.0378.7356-1.0881.6719.355-.4681.9053-.9033S892.3484,620.1476,892.3987,620.2116Z"/><path class="cls-4" d="M891.7479,618.6694a3.5724,3.5724,0,0,1-2.1451,1.93c-.04-.0749.4974-.43,1.079-.9579C891.2674,619.1185,891.6778,618.6211,891.7479,618.6694Z"/><path class="cls-4" d="M889.9447,623.6411a4.5057,4.5057,0,0,1-1.2429.9471,9.1615,9.1615,0,0,1-1.5408.7262,4.5555,4.5555,0,0,1-.9934.2714.8447.8447,0,0,1-.6028-.1478.6149.6149,0,0,1-.1942-.6391,2.8652,2.8652,0,0,1,3.3169-1.5021,2.7954,2.7954,0,0,1,1.0407.5137c.2128.1734.3023.297.29.3094a4.4163,4.4163,0,0,0-1.3778-.62,2.8159,2.8159,0,0,0-1.5866.1293,2.4221,2.4221,0,0,0-1.3965,1.2382c-.0842.2972.1706.469.49.4305a4.6542,4.6542,0,0,0,.9245-.24,10.78,10.78,0,0,0,1.53-.6519C889.4429,623.9658,889.9155,623.6027,889.9447,623.6411Z"/><path class="cls-4" d="M889.6716,623.95c-.0071.027-.4335-.1479-.8056-.7487a2.562,2.562,0,0,1-.36-1.1643,1.5681,1.5681,0,0,1,.5429-1.4254.6216.6216,0,0,1,.822.2769,1.7025,1.7025,0,0,1,.2165.7147,4.73,4.73,0,0,1-.0063,1.1994,2.2524,2.2524,0,0,1-.3213,1.047c-.0449-.0134.0751-.4122.1139-1.067a5.46,5.46,0,0,0-.0552-1.1418c-.0319-.3927-.2783-.9516-.6319-.7685a1.3981,1.3981,0,0,0-.4093,1.154,2.5705,2.5705,0,0,0,.271,1.0741A5.6849,5.6849,0,0,0,889.6716,623.95Z"/><path class="cls-4" d="M909.5012,606.5706c.0294.0466-.5917.373-1.3825,1.1473a7.6178,7.6178,0,0,0-1.9387,7.91c.3432,1.0518.7428,1.6281.6952,1.6563a1.4118,1.4118,0,0,1-.3-.388,6.3863,6.3863,0,0,1-.5917-1.2,7.39,7.39,0,0,1,1.9928-8.1308,6.3984,6.3984,0,0,1,1.08-.79A1.4006,1.4006,0,0,1,909.5012,606.5706Z"/><path class="cls-4" d="M901.3228,600.1012a84.8118,84.8118,0,0,1,6.2069,7.8323A84.7949,84.7949,0,0,1,901.3228,600.1012Z"/><path class="cls-4" d="M903.0605,617.4107a19.969,19.969,0,0,1-5.5832,4.3958c-.0459-.0725,1.27-.9658,2.8065-2.1792C901.8234,618.4189,903.0009,617.3491,903.0605,617.4107Z"/><path class="cls-4" d="M906.8283,614.4927c.0832.011.1028.3458.1973.7333.089.3892.2212.6972.1517.7443-.0626.0476-.3339-.2276-.4387-.6763C906.6315,614.8457,906.7509,614.4781,906.8283,614.4927Z"/><path class="cls-4" d="M906.884,611.6261c.0808.01.1112.306.068.6615s-.144.6358-.2247.6261-.1111-.3059-.068-.6618S906.8034,611.6162,906.884,611.6261Z"/><path class="cls-4" d="M908.2942,609.2472c.0369.0757-.2207.2708-.4264.5887-.2133.3127-.2935.6256-.3777.6208-.0789.0045-.1285-.3945.1322-.7839C907.88,609.2817,908.2677,609.1726,908.2942,609.2472Z"/><path class="cls-4" d="M909.4477,607.7478c.07.042.0355.2262-.0765.4114s-.259.3012-.3287.2592-.0354-.2261.0768-.4115S909.3781,607.7057,909.4477,607.7478Z"/><path class="cls-12" d="M780.1766,317.0287l-19.0313-24.1909s-31.1935,23.9708-34.6957,22.1c-19.4022-10.3619-34.9984-29.3047-40.2887-36.2178-.1829-1.2409-.36-2.7039-.4915-4.4375a13.1181,13.1181,0,0,1,.4394-4.4213,20.0273,20.0273,0,0,1,1.9923-5.1664c.975-1.399-.2581-3.2562-1.7243-2.7533s-4.2459,4.2935-5.2132,9.7009-5.1551-2.1531-6.7313-4.8811-6.8479-10.9383-8.07-11.1185c-1.7928-.263-2.4055,1.6087-.7674,4.2963,1.657,2.72,5.9791,11.0923,4.4977,11.8549-1.4579.7522-9.2917-13.2437-9.2917-13.2437s-1.19-3.2622-2.93-2.4382c-3.1392,1.4872,6.2835,15.7526,7.2145,17.0875.646.9275-.9334,1.8143-1.5747.7811-.66-1.0643-7.488-14.1421-10.6993-12.6582-2.4626,1.1387,7.6422,11.806,7.5523,15.3049s-6.8416-8.8685-9.15-7.6839c-.86.4412-1.44.8883,3.4626,7.4318a163.6119,163.6119,0,0,0,11.92,13.0717l-.0665.0507s45.3262,70.9032,77.3616,52.3307C777.8842,322.12,780.1766,317.0287,780.1766,317.0287Z"/><path class="cls-13" d="M597.8979,256.6466,720.5886,333.45s20.3037-20.6284,21.3581-71.62Z"/><path class="cls-4" d="M780.1555,392.48s70.9114,103.1366,76.9139,105.6293,119.6572,9.7154,119.6572,9.7154l1.9029-42.9376s-98.7825-8.7434-99.9205-10.7913-64.1464-107.83-64.1464-107.83Z"/><path class="cls-13" d="M971.2671,463.3635c.2208.0156-.28,9.7057-1.1175,21.6408-.8383,11.9393-1.6965,21.6024-1.9174,21.5868s.28-9.7036,1.1178-21.6428C970.1881,473.013,971.0466,463.348,971.2671,463.3635Z"/><path class="cls-13" d="M879.204,454.4443c.1707.141-1.621,2.594-4.0012,5.4784s-4.4493,5.1095-4.62,4.9687,1.6207-2.5934,4.0017-5.4788S879.0334,454.3035,879.204,454.4443Z"/><path class="cls-13" d="M878.72,455.19c.2154.0511-.2735,2.8907-1.0915,6.3418s-1.6564,6.2084-1.8717,6.1575.2733-2.89,1.0918-6.3424S878.5048,455.1386,878.72,455.19Z"/><path class="cls-13" d="M898.7164,471.774a2.0443,2.0443,0,1,0,.7594-.2546"/><path class="cls-13" d="M841.5454,429.6708a2.0442,2.0442,0,1,0,.7594-.2546"/><path class="cls-13" d="M913.6014,489.9929a2.0442,2.0442,0,1,0,.7594-.2545"/><path class="cls-13" d="M949.9719,495.6766a2.0442,2.0442,0,1,0,.7594-.2546"/><path class="cls-13" d="M934.7752,472.6069a2.0444,2.0444,0,1,0,.76-.2545"/><path class="cls-13" d="M856.42,476.9754a2.0441,2.0441,0,1,0,.7594-.2546"/><path class="cls-13" d="M959.8984,476.3712a2.0443,2.0443,0,1,0,.7594-.2545"/><path class="cls-13" d="M880.2771,485.3083a2.0441,2.0441,0,1,0,.7594-.2546"/><path class="cls-13" d="M862.9779,445.5325a2.0445,2.0445,0,1,0,.7594-.2544"/><path class="cls-4" d="M828.4394,369.5839l2.9522,3.6324c8.0558,9.9143,10.6,24.9516,10.0424,38.0376a12.0631,12.0631,0,0,1-1.5487,5.4669l-4.0509,7.114,4.7674,72.573a26.0569,26.0569,0,0,0,5.6252,16.1774l67.7219,85.565-29.8446,25.0489s-87.3663-101.0349-89.74-105.83L777.8178,389.7256Z"/><path class="cls-13" d="M807.1165,385.3461c.1334-.042.494,1.304,1.6367,3.172a14.86,14.86,0,0,0,13.325,7.2157,19.6121,19.6121,0,0,0,4.1608-.6245l.0269-.0057c.287.0106.42.034.4221.068s-.1252.0765-.4076.129l.0263-.0057a11.6984,11.6984,0,0,1-4.1938,1.0675A14.3321,14.3321,0,0,1,808.2614,388.8,7.8235,7.8235,0,0,1,807.1165,385.3461Z"/><path class="cls-13" d="M836.2631,382.8838a6.9063,6.9063,0,0,1,.6765,1.0135c.4178.68,1.0277,1.6859,1.7651,3.0112a48.3865,48.3865,0,0,1,4.9661,11.8469,22.4055,22.4055,0,0,1,.4623,8.904c-.46,3.2409-2.104,6.361-3.7446,9.5076a33.7958,33.7958,0,0,0-2.1819,4.9737,26.602,26.602,0,0,0-1.1621,5.5206,67.4864,67.4864,0,0,0,.0768,11.9682c1.0756,16.4539,2.049,31.3443,2.76,42.221.3109,5.3427.564,9.6945.7448,12.8007.0676,1.4527.1216,2.6116.1621,3.4831a6.9393,6.9393,0,0,1,.0021,1.218,6.9058,6.9058,0,0,1-.1633-1.2071q-.117-1.303-.3121-3.4728c-.2425-3.102-.5822-7.4479-.999-12.7835-.7714-10.8728-1.8274-25.7575-2.9943-42.2054a67.1754,67.1754,0,0,1-.0575-12.11A27.18,27.18,0,0,1,837.48,421.9a34.2045,34.2045,0,0,1,2.2521-5.0715c1.6718-3.162,3.2763-6.1657,3.7454-9.2791a22.0312,22.0312,0,0,0-.3588-8.665,51.2278,51.2278,0,0,0-4.689-11.8279l-1.63-3.079A6.9241,6.9241,0,0,1,836.2631,382.8838Z"/><path class="cls-13" d="M844.7448,506.6787c.0131.2431-3.8806.48-8.4849,1.7218-4.6141,1.2106-8.11,2.9392-8.22,2.7214-.1072-.168,3.2936-2.2551,8.0138-3.4959C840.7652,506.3582,844.7543,506.48,844.7448,506.6787Z"/><path class="cls-13" d="M909.9661,592.7522c.0349.0429-.3556.4256-1.0924,1.0816-.7351.6576-1.8246,1.5786-3.19,2.6927-2.7308,2.229-6.59,5.2048-10.9833,8.31-4.3971,3.1035-8.4925,5.7454-11.5062,7.5735-1.5068.9146-2.7391,1.6333-3.6045,2.1062a5.6887,5.6887,0,0,1-1.3844.6676,45.75,45.75,0,0,1,4.6847-3.2519c2.93-1.9468,6.9638-4.6554,11.3482-7.75,4.3809-3.0959,8.2821-5.9909,11.0968-8.1016A45.7549,45.7549,0,0,1,909.9661,592.7522Z"/><path class="cls-13" d="M800.3186,432.2361a2.0442,2.0442,0,1,0,.7594-.2545"/><path class="cls-13" d="M821.1327,448.9358a2.0442,2.0442,0,1,0,.7594-.2545"/><path class="cls-13" d="M804.7122,500.8712a2.0442,2.0442,0,1,0,.7594-.2545"/><path class="cls-13" d="M815.6151,527.2948a2.0445,2.0445,0,1,0,.7594-.2543"/><path class="cls-13" d="M840.5656,553.7776a2.0441,2.0441,0,1,0,.76-.2546"/><path class="cls-13" d="M860.0375,551.2142a2.0444,2.0444,0,1,0,.7594-.2545"/><path class="cls-13" d="M878.7726,593.0641a2.0444,2.0444,0,1,0,.7594-.2545"/><path class="cls-13" d="M879.7536,572.9333a2.0444,2.0444,0,1,0,.7594-.2545"/><path class="cls-13" d="M814.7261,475.7271a2.0442,2.0442,0,1,0,.7594-.2546"/><path class="cls-13" d="M840.7309,523.6911a2.0441,2.0441,0,1,0,.7594-.2546"/><path class="cls-13" d="M858.7672,572.8638a2.0445,2.0445,0,1,0,.7594-.2544"/><path class="cls-13" d="M795.605,463.2289a2.0442,2.0442,0,1,0,.7594-.2546"/><path class="cls-13" d="M789.0034,411.0857a2.0442,2.0442,0,1,0,.7594-.2545"/><path class="cls-13" d="M818.1891,418.461a2.0442,2.0442,0,1,0,.7594-.2545"/><path class="cls-13" d="M810.63,276.7129a26.1358,26.1358,0,0,1,19.956,7.4086h0c12.1052,13.8019,2.024,31.6835-2.9327,46.7654l-3.7558,11.4279c-2.4878,9.6957,12.4311,24.09,17.7639,39.925l-65.3466,14.4494-6.4287-38.133-8.6749-27.1191-10.7788,6.86L727.761,311.5856l21.3581-16.7443a60.2524,60.2524,0,0,1,37.9493-16.6233"/><path class="cls-4" d="M768.1926,309.3461c.0559.1361-1.4341.617-3.3885,2.0926a14.5335,14.5335,0,0,0-4.9539,16.944c.8517,2.296,1.8478,3.5035,1.7273,3.5881-.0383.0308-.3242-.2359-.7574-.7922a12.223,12.223,0,0,1-1.4959-2.5854,14.266,14.266,0,0,1,5.15-17.6154,12.234,12.234,0,0,1,2.6532-1.3723A2.609,2.609,0,0,1,768.1926,309.3461Z"/><path class="cls-4" d="M785.0944,278.01a17.283,17.283,0,0,0,1.5578,6.2267,13.7347,13.7347,0,0,0,4.4828,5.1846,13.2691,13.2691,0,0,0,15.731-.8575,13.7347,13.7347,0,0,0,3.8926-5.6417,17.2814,17.2814,0,0,0,.8716-6.3587c.0274-.0045.0731.1465.1355.44a8.6057,8.6057,0,0,1,.1735,1.3045,13.0717,13.0717,0,0,1-.6453,4.8A13.484,13.484,0,0,1,786.14,284.48a13.0733,13.0733,0,0,1-1.1635-4.7016,8.6359,8.6359,0,0,1,.03-1.3154C785.0377,278.1639,785.0668,278.0089,785.0944,278.01Z"/><path class="cls-14" d="M697.33,297.1167c-.0507-3.1371-9.2818-12.2157-7.1694-13.35,2.7519-1.4779,9.2076,9.9114,9.824,10.8333.5985.8956,1.947.0278,1.3461-.7731-.8624-1.152-9.63-13.4823-6.94-14.96,1.4911-.82,2.6526,2.0455,2.6526,2.0455s7.368,12.1641,8.6153,11.423c1.2664-.7517-2.8233-8.0452-4.3728-10.4035-1.5309-2.33-1.0644-4.0336.5126-3.8817,1.0755.1037,5.99,7.2085,7.468,9.5772s5.422,8.9409,6.0668,4.055c.01-.0771.0286-.1462.0395-.2225.5045-4.8284,2.4923-8.3814,3.7668-9.0179a1.678,1.678,0,0,1,2.2324,2.03,1.7247,1.7247,0,0,1-.23.6666c-.0558.0907-.1064.2253-.1609.33a24.2073,24.2073,0,0,0-1.0582,4.859,13.0762,13.0762,0,0,0,.1514,4.4391c.3544,1.686.7247,3.1272,1.0683,4.3278,6.1531,6.1473,24.1257,22.866,44.735,30.5683,3.7209,1.3912,39.61-26.2631,39.61-26.2631l14.1483,25.3051c-3.8214,3.6408-14.9558,11.4181-32.9088,25.3017-29.2909,22.6524-81.6189-43.9743-81.6189-43.9743h0l-.5317-.4818a159.22,159.22,0,0,1-12.23-12.3942c-4.5281-5.6288-4.0375-6.0572-3.3027-6.4921C691.02,289.4963,697.38,300.2542,697.33,297.1167Z"/><path class="cls-4" d="M771.767,324.6557a40.4687,40.4687,0,0,1,4.3017-3.4068l10.5235-8.0045c3.973-3.1232,7.5648-5.9465,10.3965-8.1724a40.4379,40.4379,0,0,1,4.3792-3.306c.0358.0421-.33.4207-1.0218,1.0694s-1.7141,1.5636-2.9961,2.673c-2.5626,2.2191-6.1745,5.2035-10.2677,8.37-4.0927,3.1637-7.8895,5.9083-10.6822,7.83-1.3959.9614-2.538,1.7219-3.3408,2.2273A5.2909,5.2909,0,0,1,771.767,324.6557Z"/><path class="cls-13" d="M829.1628,284.2383s12.8432,12.8459-3.2608,37.2388a114.1866,114.1866,0,0,1-38.5879,35.8959L770.9084,325.85a194.9753,194.9753,0,0,0,38.4348-27.496l19.7822-14.1517Z"/><path class="cls-4" d="M770.6392,325.1453a39.3867,39.3867,0,0,1,2.46,4.6061c1.4585,2.8706,3.5071,6.816,5.9081,11.0978,2.4049,4.2813,4.7057,8.0858,6.3964,10.8261a39.469,39.469,0,0,1,2.65,4.4989c-.0457.0313-.3684-.3519-.9134-1.0724-.5473-.7189-1.3044-1.7838-2.2123-3.1187-1.8172-2.6688-4.2048-6.4429-6.62-10.7418-2.4106-4.2992-4.3881-8.3027-5.72-11.2442-.6665-1.4705-1.181-2.6715-1.51-3.5133A4.8087,4.8087,0,0,1,770.6392,325.1453Z"/><path class="cls-4" d="M814.4307,337.4847c.1349.1756-5.373,4.63-12.3,9.9485-6.93,5.32-12.6547,9.49-12.79,9.3139s5.3719-4.6292,12.3014-9.9494C808.57,341.4794,814.2959,337.3093,814.4307,337.4847Z"/><path class="cls-14" d="M811.687,279.15l-.0748-40.6723a24.3936,24.3936,0,0,0-10.5668-20.0518l-2.9175-2.0074A8.0018,8.0018,0,0,0,790.45,216l-5.7352,2.7478a15.4682,15.4682,0,0,0-8.7876,13.6009c-.1673,7.436-.3007,17.4366.0037,23.1413.5258,9.883,10.4782,11.0166,10.4782,11.0166s-.341,5.4481-.6934,11.1784a13.0061,13.0061,0,0,0,11.969,13.765h0a13.0063,13.0063,0,0,0,13.98-11.9537Q811.6781,279.3233,811.687,279.15Z"/><path class="cls-4" d="M778.0333,239.4519a1.2545,1.2545,0,1,0,0-.0007Z"/><path class="cls-4" d="M776.8205,238.0638c.1625.1651,1.102-.6217,2.464-.6834,1.3606-.0828,2.3781.6006,2.5218.4193.07-.0806-.0959-.3832-.5415-.6934a3.3581,3.3581,0,0,0-3.98.211C776.8762,237.6726,776.7424,237.9913,776.8205,238.0638Z"/><path class="cls-4" d="M792.6855,239.5683a1.2542,1.2542,0,1,0,0-.0015Z"/><path class="cls-4" d="M791.91,238.1836c.1623.165,1.1021-.6216,2.4639-.6835,1.3607-.0828,2.3783.6008,2.5219.4193.07-.0805-.0959-.3831-.5416-.6934a3.3581,3.3581,0,0,0-3.98.211C791.9655,237.7923,791.8316,238.1112,791.91,238.1836Z"/><path class="cls-12" d="M786.4031,266.5065a24.6642,24.6642,0,0,0,13.1234-4.3164s-3.0245,7.2291-12.9264,6.7418Z"/><path class="cls-4" d="M786.9094,249.6421a9.23,9.23,0,0,0-2.2261-.2964c-.346-.02-.687-.0736-.7576-.33a1.9345,1.9345,0,0,1,.2019-1.0972q.4532-1.3373.9558-2.8142c.6633-2.0021,1.234-3.8234,1.6216-5.15a9.0764,9.0764,0,0,0,.5181-2.184,9.2351,9.2351,0,0,0-.8864,2.062c-.4817,1.2958-1.1111,3.0983-1.7744,5.1q-.48,1.483-.9156,2.8276a2.1993,2.1993,0,0,0-.1457,1.4214.8477.8477,0,0,0,.5755.4944,2.2648,2.2648,0,0,0,.59.058A9.1457,9.1457,0,0,0,786.9094,249.6421Z"/><path class="cls-4" d="M802.9926,215.2864c6.3207,3.2923,10.3006,6.8527,14.7419,7.5168s8.9656.2735,13.4535.43,9.1536.9437,12.7617,3.6174,5.8043,7.6572,4.1122,11.817c6.0363.078,12.1439,2.97,15.41,8.0467s3.2011,12.296-.721,16.8851c-1.8782,2.1974-4.4754,3.7218-6.2,6.0417-1.1124,1.4967-1.8134,3.2635-2.8991,4.78a11.7179,11.7179,0,0,1-13.7868,3.7933c-5.3719-2.35-8.7041-8.7007-14.5-9.5835-3.1-.4721-6.2343.7871-9.3609.5489-4.8709-.3712-8.8455-4.398-10.6393-8.9418s-1.833-9.5623-1.8479-14.4474"/><path class="cls-4" d="M777.7206,220.3645a16.0363,16.0363,0,0,0-1.6916,19.2883c1.8712-3.0163,3.7439-6.1075,4.6071-9.55s.58-7.3494-1.5724-10.1716"/><path class="cls-4" d="M777.7851,220.2765c-.1279,6.2568,4.4613,12.0128,10.2578,14.3722a5.584,5.584,0,0,0,2.6226.5338,2.3534,2.3534,0,0,0,2.0585-1.5039,1.5167,1.5167,0,0,0-1.2791-1.9429,40.89,40.89,0,0,0,6.9471,4.7231,4.9055,4.9055,0,0,0,3.7393.7879c1.2445-.414,1.8991-2.3438.7928-3.0486,1.812,2.058,3.1408,7.5669,5.4225,9.0878.72.48,2.348-2.7408,3.1635-3.03,1.0031-.3563,1.299-1.6055,1.4448-2.66.54-3.9091,1.0575-8.0262-.4047-11.6915-2.1722-5.4455-7.5757-10.5933-13.23-12.1421-3.8137-1.0447-8.5988-.5523-12.4993.0977s-7.4316,3.8221-9.4269,7.236"/><path class="cls-14" d="M809.1444,239.856a3.3112,3.3112,0,0,1,3.6387-.6433,4.0672,4.0672,0,0,1,2.2663,3.0219,5.3029,5.3029,0,0,1-.8539,3.747,3.1664,3.1664,0,0,1-3.159,1.6454"/><path class="cls-4" d="M841.0147,243.2881c-.0234-.08,1.0435-.3,2.7874-1.1314a15.3783,15.3783,0,0,0,6.1578-5.1349,11.1558,11.1558,0,0,0,1.8961-5.1413,10.9122,10.9122,0,0,0-1.135-6.1269,8.86,8.86,0,0,0-5.1783-4.3262,15.0152,15.0152,0,0,0-7.4621-.3287c-5.1238.9231-9.8236,3.388-14.6258,3.25-4.7376-.1256-8.658-1.8477-11.8783-3.1-3.23-1.3228-5.7628-2.5741-7.4849-3.4857-.8617-.4552-1.52-.8292-1.9615-1.09a2.9078,2.9078,0,0,1-.6516-.4384,2.9142,2.9142,0,0,1,.7271.2956l2.0252.9539c1.76.8233,4.3175,1.99,7.555,3.2383,3.2327,1.1857,7.1433,2.8152,11.676,2.8882,4.561.1108,9.1778-2.3263,14.48-3.3012a15.68,15.68,0,0,1,7.8529.3742,9.5851,9.5851,0,0,1,5.5812,4.7286,11.5105,11.5105,0,0,1,1.1409,6.541,11.63,11.63,0,0,1-2.09,5.39,15.0871,15.0871,0,0,1-6.4972,5.0981,14.3889,14.3889,0,0,1-2.1385.7165A2.8989,2.8989,0,0,1,841.0147,243.2881Z"/><path class="cls-12" d="M810.9314,245.253c-.0068-.1246.4187-.1888.863-.5983a1.7822,1.7822,0,0,0-1.0506-3.2271c-.6-.07-.9819.1292-1.05.0244-.0674-.0622.25-.5014,1.0449-.591a2.2736,2.2736,0,0,1,1.3851,4.2546C811.4284,245.5112,810.9135,245.343,810.9314,245.253Z"/><path class="cls-12" d="M792.3807,250.9454a1.9754,1.9754,0,0,0-2.05-.4636,2.8982,2.8982,0,0,0-1.6681,1.0258,1.7264,1.7264,0,0,0-.147,1.8775,2.1507,2.1507,0,0,0,1.9719.81,2.8982,2.8982,0,0,0,2.1717-1.0087,1.7775,1.7775,0,0,0-.0335-2.263"/><path class="cls-4" d="M793.0713,249.8409c.2033.0606-.3384,1.6584-1.9994,2.74-1.6513,1.0976-3.3326.9626-3.3079.752-.0176-.233,1.4293-.454,2.8675-1.4214C792.0885,250.9741,792.8643,249.7324,793.0713,249.8409Z"/><path class="cls-4" d="M843.14,216.2449c-.0282.0745-.6185-.2187-1.7563-.3332a10.1683,10.1683,0,0,0-4.7143.7542A43.6154,43.6154,0,0,0,830.345,220.2a17.42,17.42,0,0,1-8.6409,2.6314,24.2246,24.2246,0,0,1-8.9228-1.4529,40.8988,40.8988,0,0,1-6.6638-3.1144c-1.814-1.0371-3.2289-1.9554-4.1993-2.6a7.787,7.787,0,0,1-1.4585-1.078,7.9946,7.9946,0,0,1,1.621.8117c1.0187.5617,2.4754,1.4039,4.3089,2.3689,3.6241,1.8772,8.9823,4.48,15.2832,4.2636a17.0955,17.0955,0,0,0,8.3033-2.47,39.3656,39.3656,0,0,1,6.4991-3.4269,9.7376,9.7376,0,0,1,4.9534-.53,5.6376,5.6376,0,0,1,1.3036.3953C843.0118,216.1361,843.1506,216.22,843.14,216.2449Z"/></g><g id="Character_1" data-name="Character 1"><path class="cls-9" d="M379.0362,138.6765c.0332.0312,23.0372-14.4623,28.4266-10.095s8.3764,11.5244,8.3764,11.5244L391.02,149.974Z"/><polygon class="cls-6" points="282.311 152.254 334.307 158.742 382.743 132.162 394.71 149.46 334.046 188.539 272.437 180.815 282.311 152.254"/><g class="cls-15"><polygon class="cls-16" points="282.311 152.254 334.307 158.742 382.743 132.162 394.71 149.46 334.046 188.539 272.437 180.815 282.311 152.254"/></g><path class="cls-4" d="M333.3247,218.0187S324.1078,85.803,445.7174,70.7478l19.99,133.846Z"/><path class="cls-6" d="M66.1311,462.3828l11.9176-5.145-9.4949-22.3855-17.5152,7.3428.5,1.4256c2.2771,6.3226,12.0236,31.9869,15.0267,35.5853C69.9154,483.219,66.1311,462.3828,66.1311,462.3828Z"/><g class="cls-8"><path class="cls-9" d="M54.657,450.2369a8.4352,8.4352,0,0,0,3.5612-4.8809,8.1943,8.1943,0,0,0-.592-5.9226l-6.2583,2.6489Z"/></g><g class="cls-10"><path class="cls-11" d="M67.6488,472.7042s.9045,7.4818-.5463,7.1158-12.2757-25.9307-16.0639-37.6249l.5154-.1763L63.9267,471.946S67.0416,471.424,67.6488,472.7042Z"/></g><path class="cls-4" d="M51.419,441.6613a2.2265,2.2265,0,0,0,.1212.4025c.12.34.2525.7133.4015,1.134q.6309,1.6891,1.548,4.1438c1.3318,3.4894,3.2359,8.2862,5.4535,13.5366,2.22,5.251,4.3326,9.9605,5.9065,13.3476l1.8924,3.9979c.1979.4.3731.7544.5332,1.0781a2.2991,2.2991,0,0,0,.2039.3674,2.2288,2.2288,0,0,0-.15-.3925l-.483-1.1014Q66.11,476.53,65.04,474.14c-1.5251-3.4081-3.6063-8.1278-5.825-13.3761-2.2163-5.2473-4.15-10.0287-5.5309-13.4977q-.9668-2.43-1.6347-4.1087c-.1682-.4135-.3171-.78-.4534-1.1141A2.2751,2.2751,0,0,0,51.419,441.6613Z"/><path class="cls-4" d="M63.5763,472.0873a9.969,9.969,0,0,1,2.2646-.0625,9.9477,9.9477,0,0,1,2.1454.7277A3.9279,3.9279,0,0,0,63.5763,472.0873Z"/><path class="cls-4" d="M64.1308,464.0614a4.9492,4.9492,0,0,0,2.3642.3936,4.9446,4.9446,0,0,0-2.3642-.3936Z"/><path class="cls-4" d="M64.3216,461.8424c-.0343.0737.351.3273.8609.5661s.9512.373.9858.3-.3508-.3273-.8607-.5663S64.3562,461.7687,64.3216,461.8424Z"/><path class="cls-4" d="M65.95,459.8013a2.86,2.86,0,0,0,.3458,1.2314c.2662.649.5434,1.15.6186,1.1191a2.8687,2.8687,0,0,0-.3459-1.2312C66.3017,460.2717,66.0249,459.77,65.95,459.8013Z"/><path class="cls-4" d="M67.2733,458.7767a3.5743,3.5743,0,0,0,.9224,2.7344Q67.7166,460.15,67.2733,458.7767Z"/><path class="cls-4" d="M66.4056,463.9937a4.5075,4.5075,0,0,0,.6183,1.4351,9.1436,9.1436,0,0,0,.9864,1.3886,4.5479,4.5479,0,0,0,.7326.7239.8445.8445,0,0,0,.5977.1669.6147.6147,0,0,0,.4827-.4616,2.8652,2.8652,0,0,0-2.1534-2.9361,2.7963,2.7963,0,0,0-1.1589-.0629c-.27.0466-.409.1105-.4044.1274a4.4144,4.4144,0,0,1,1.505.1356,2.8194,2.8194,0,0,1,1.3191.8908,2.4225,2.4225,0,0,1,.6093,1.7642c-.0724.3-.3788.325-.6378.1352a4.6619,4.6619,0,0,1-.688-.6627,10.7563,10.7563,0,0,1-1.013-1.3183C66.6835,464.5227,66.45,463.9746,66.4056,463.9937Z"/><path class="cls-4" d="M66.4921,464.3965a1.5385,1.5385,0,0,0,1.0693-.257,2.5623,2.5623,0,0,0,.8848-.838,1.5681,1.5681,0,0,0,.2262-1.5084.6221.6221,0,0,0-.8522-.1622,1.7106,1.7106,0,0,0-.5393.5168,4.7353,4.7353,0,0,0-.5829,1.0481,2.2535,2.2535,0,0,0-.2336,1.07c.0457.01.1368-.396.4242-.9856a5.47,5.47,0,0,1,.6083-.9679c.2205-.3263.7093-.6927.9276-.36a1.3972,1.3972,0,0,1-.2094,1.2063,2.5724,2.5724,0,0,1-.7631.8031A5.6852,5.6852,0,0,1,66.4921,464.3965Z"/><path class="cls-4" d="M57.7389,439.5242c-.0484.0263.3326.6155.6419,1.6781a7.618,7.618,0,0,1-2.1914,7.8441c-.815.7482-1.4461,1.0543-1.4183,1.1021a1.4074,1.4074,0,0,0,.4519-.1906,6.4009,6.4009,0,0,0,1.1041-.7553A7.39,7.39,0,0,0,58.58,441.14a6.4034,6.4034,0,0,0-.5531-1.2183A1.4093,1.4093,0,0,0,57.7389,439.5242Z"/><path class="cls-4" d="M68.0394,437.8993a42.4474,42.4474,0,0,0-4.681,1.7534,42.4417,42.4417,0,0,0-4.57,2.0264,42.573,42.573,0,0,0,4.6815-1.7536A42.52,42.52,0,0,0,68.0394,437.8993Z"/><path class="cls-4" d="M58.0332,452.13a19.9724,19.9724,0,0,0,2.7085,6.57c.0756-.0407-.6329-1.4648-1.3764-3.2758C58.6166,453.6155,58.1152,452.1056,58.0332,452.13Z"/><path class="cls-4" d="M56.1815,447.739c-.0779-.0314-.2592.2509-.5316.5422-.2684.2954-.5349.4989-.4974.5739.0312.0724.4026-.0343.7142-.3739C56.18,448.1431,56.2561,447.7643,56.1815,447.739Z"/><path class="cls-4" d="M57.5394,445.2137c-.0753-.0313-.2472.212-.3838.543s-.1867.6246-.1114.6559.2469-.2121.3839-.5434S57.6145,445.2446,57.5394,445.2137Z"/><path class="cls-4" d="M57.4777,442.4489c-.0694.0478.0594.3442.0826.7221.0324.3772-.0512.6891.0246.7262.0665.0429.3055-.2807.2693-.7479C57.8212,442.6818,57.5373,442.3968,57.4777,442.4489Z"/><path class="cls-4" d="M57.208,440.5763c-.0813.0026-.1418.18-.1352.3961s.0781.39.1593.3873.1418-.18.1352-.3963S57.2893,440.5738,57.208,440.5763Z"/><path class="cls-6" d="M29.0064,366.343l12.97-.5414-.8588-24.3007-18.9829.5912-.0434,1.51c-.1352,6.7187-.2145,34.1715,1.3027,38.6059C25.0867,387.1541,29.0064,366.343,29.0064,366.343Z"/><g class="cls-17"><path class="cls-9" d="M22.6366,350.8962a8.4328,8.4328,0,0,0,5.0715-3.284,8.1943,8.1943,0,0,0,1.5658-5.7424l-6.7916.235Z"/></g><g class="cls-17"><path class="cls-11" d="M26.7316,376.5243s-1.8318,7.31-3.0557,6.45-2.1873-28.6061-1.5416-40.8817l.5445.02.8482,32.3727S26.6225,375.1117,26.7316,376.5243Z"/></g><path class="cls-4" d="M22.6805,341.73a2.221,2.221,0,0,0-.0308.4192c-.0094.361-.0194.7563-.0306,1.2024-.01,1.2021-.0224,2.68-.0368,4.4234-.0046,3.735.0575,8.8955.25,14.5917.1945,5.6977.4827,10.8512.7409,14.5772.1328,1.7387.2455,3.2121.337,4.41.0417.4444.0785.8379.1122,1.1975a2.2712,2.2712,0,0,0,.0591.4161,2.2492,2.2492,0,0,0,0-.42c-.0172-.3609-.0358-.7556-.0572-1.2012-.066-1.2-.1474-2.6747-.2433-4.4152-.205-3.728-.46-8.88-.6545-14.5746-.1925-5.693-.2877-10.85-.3365-14.5831-.0225-1.7432-.0414-3.22-.0568-4.4215-.0091-.4464-.0171-.8416-.0248-1.2026A2.2814,2.2814,0,0,0,22.6805,341.73Z"/><path class="cls-4" d="M23.1493,374.4914a9.9568,9.9568,0,0,1,2.137.7518A9.9523,9.9523,0,0,1,27.03,376.69a3.2693,3.2693,0,0,0-1.5979-1.7035A3.2706,3.2706,0,0,0,23.1493,374.4914Z"/><path class="cls-4" d="M26.538,367.1949c-.0411.07.3882.3985.959.7337s1.0669.55,1.1081.48-.3881-.3985-.9588-.7337S26.5792,367.1247,26.538,367.1949Z"/><path class="cls-4" d="M27.51,365.191c-.0585.0566.2106.4312.6013.8367s.755.6886.8136.6323-.21-.4312-.6012-.8367S27.5687,365.1347,27.51,365.191Z"/><path class="cls-4" d="M29.76,363.8675a5.546,5.546,0,0,0,.06,2.54A5.546,5.546,0,0,0,29.76,363.8675Z"/><path class="cls-4" d="M31.3631,363.3843a3.5739,3.5739,0,0,0-.1168,2.8831Q31.2858,364.8252,31.3631,363.3843Z"/><path class="cls-4" d="M28.6865,367.9455a4.51,4.51,0,0,0,.0642,1.5613,9.1354,9.1354,0,0,0,.4242,1.65,4.55,4.55,0,0,0,.4252.9381.845.845,0,0,0,.4985.37.6147.6147,0,0,0,.6159-.2584,2.8654,2.8654,0,0,0-.96-3.5122,2.7984,2.7984,0,0,0-1.06-.4732.8651.8651,0,0,0-.4232-.0257,4.4138,4.4138,0,0,1,1.3568.665,2.8178,2.8178,0,0,1,.9131,1.3038,2.4227,2.4227,0,0,1-.0621,1.8655c-.175.2544-.47.1679-.6439-.1022a4.6684,4.6684,0,0,1-.4055-.8648,10.7687,10.7687,0,0,1-.4742-1.5934C28.7568,368.539,28.7347,367.9435,28.6865,367.9455Z"/><path class="cls-4" d="M28.6233,368.3527a1.54,1.54,0,0,0,1.09.1423,2.5608,2.5608,0,0,0,1.126-.4659,1.5686,1.5686,0,0,0,.7509-1.3277.6217.6217,0,0,0-.7378-.4562,1.7034,1.7034,0,0,0-.6885.29,4.7211,4.7211,0,0,0-.9192.77,2.2559,2.2559,0,0,0-.6011.9156c.0391.026.27-.3208.7488-.7686a5.47,5.47,0,0,1,.9143-.6863c.3227-.2259.91-.393.9949-.004.0512.39-.3238.8022-.6272,1.0516a2.5734,2.5734,0,0,1-1,.477A5.6968,5.6968,0,0,1,28.6233,368.3527Z"/><path class="cls-4" d="M29.3467,341.9949c-.0547.0074.09.6938-.001,1.7967a7.6171,7.6171,0,0,1-4.8522,6.5411c-1.0289.4072-1.7276.4673-1.7189.5218a1.4059,1.4059,0,0,0,.49-.0163,6.406,6.406,0,0,0,1.3012-.31,7.39,7.39,0,0,0,4.9878-6.7234,6.4072,6.4072,0,0,0-.0806-1.3354A1.4082,1.4082,0,0,0,29.3467,341.9949Z"/><path class="cls-4" d="M39.5469,344.1623a42.4861,42.4861,0,0,0-4.9985-.0372,42.3984,42.3984,0,0,0-4.9926.2576,42.6031,42.6031,0,0,0,4.999.0371A42.5408,42.5408,0,0,0,39.5469,344.1623Z"/><path class="cls-4" d="M25.1121,353.8719a19.974,19.974,0,0,0,.1793,7.1038c.0851-.0111-.0671-1.5944-.1136-3.5515C25.1255,355.4678,25.1975,353.8785,25.1121,353.8719Z"/><path class="cls-4" d="M24.9538,349.109c-.0616-.0572-.3318.1414-.69.3161-.3564.18-.6782.2745-.67.3581.0032.0786.3882.1119.8007-.0937C24.8077,349.4857,25.0144,349.1592,24.9538,349.109Z"/><path class="cls-4" d="M27.1252,347.2364c-.0592-.056-.3068.11-.5527.37s-.3978.5165-.3386.5726.3064-.11.5528-.37S27.1841,347.2923,27.1252,347.2364Z"/><path class="cls-4" d="M28.0565,344.6326c-.0819.02-.0677.3427-.1811.704-.1047.3638-.2944.6252-.2368.6869.0467.0637.3857-.1529.519-.6021C28.2939,344.9731,28.1308,344.6053,28.0565,344.6326Z"/><path class="cls-4" d="M28.4746,342.7875c-.0769-.0267-.1968.1171-.2679.3215s-.0665.3918.01.4186.1968-.1172.268-.3217S28.5514,342.8143,28.4746,342.7875Z"/><path class="cls-14" d="M413.4285,172.5952a149.01,149.01,0,0,0,14.8971-6.5854c5.8729-3.343,5.5928-3.8842,5.1029-4.5151-1.3177-1.6943-10.5454,5.4828-9.4253,2.77s12.2709-7.4421,10.8224-9.1548c-1.8872-2.2308-11.415,5.4629-12.268,6.0532-.8282.5739-1.7035-.644-.9056-1.1349,1.1458-.7062,13.0085-8.4246,11.1754-10.6342-1.0161-1.2254-3.01.8691-3.01.8691s-10.5876,8.0544-11.4187,6.9812c-.8439-1.089,5.2191-6.0308,7.377-7.551,2.132-1.5016,2.3113-3.1442.887-3.5536-.9716-.2792-7.6869,4.2157-9.7867,5.769s-7.7878,5.9182-6.6712,1.4453.332-8.3258-.5883-9.2111-2.47.1182-2.2193,1.5229a17.22,17.22,0,0,1-.2718,4.639,11.2455,11.2455,0,0,1-1.1749,3.5361c-.5092.9543-.9876,1.7825-1.4322,2.5184l-4.6683,7.8966,5.8948,11.2364Z"/><path class="cls-4" d="M223.8534,265.3061l4.905-9.2588L202.267,233.988s-26.2148,23.1489-28.0115,27.9236-36.2,74.7849-36.2,74.7849L32.258,339.6936l-1.2055,40.83s102.4113-2.567,118.59-3.4882c21.1837-1.2063,31.4237-30.9629,31.4237-30.9629l1.9723-3.7229c-1.4083,11.4556-2.7645,21.815-3.8218,28.0146a11.2506,11.2506,0,0,1-5.7164,7.9919l-115.42,54.88,17.3808,40.4595s134.7118-66.272,140.16-80.5426c6.7433-17.6615,38.5713-122.3331,38.5713-122.3331Z"/><path class="cls-13" d="M178.2992,373.2383a6.1217,6.1217,0,0,1,.3535-1.0993c.2936-.7827.68-1.8134,1.1646-3.1032l-.0111.0509a192.912,192.912,0,0,1,1.8472-19.87c1.1583-8.6979,3.0526-19.0882,4.8856-30.2858,1.2114-7.5,2.2556-14.6762,2.6694-21.2241.3284-6.5494-.2539-12.4891.0108-17.4969a47.128,47.128,0,0,1,.7816-6.7119,37.3566,37.3566,0,0,1,1.3638-4.9142,26.7037,26.7037,0,0,1,1.224-2.9766,5.8514,5.8514,0,0,1,.512-.9979,5.9126,5.9126,0,0,1-.3637,1.0616c-.278.678-.663,1.6858-1.0765,3.012a40.6821,40.6821,0,0,0-1.2194,4.8985,48.9758,48.9758,0,0,0-.6557,6.65c-.1919,4.9591.45,10.884.1607,17.5117a213.472,213.472,0,0,1-2.6159,21.3163c-1.8356,11.2125-3.777,21.5824-5.0176,30.251-1.3057,8.66-1.9134,15.6047-2.1909,19.792l-.002.03-.0093.0215c-.5428,1.2665-.9766,2.2784-1.3059,3.0466A6.1354,6.1354,0,0,1,178.2992,373.2383Z"/><path class="cls-13" d="M245.7035,287.9956a3.4423,3.4423,0,0,1-.6863,1.126,10.8317,10.8317,0,0,1-2.673,2.4173,12.7736,12.7736,0,0,1-5.0078,1.9142,11.6615,11.6615,0,0,1-11.6439-4.871,12.7729,12.7729,0,0,1-2.1532-4.91,10.829,10.829,0,0,1-.1554-3.6,3.4432,3.4432,0,0,1,.32-1.2791,19.4517,19.4517,0,0,0,.3881,4.7531,12.9712,12.9712,0,0,0,2.197,4.6007,11.27,11.27,0,0,0,10.94,4.5764,12.9693,12.9693,0,0,0,4.818-1.6659A19.4351,19.4351,0,0,0,245.7035,287.9956Z"/><path class="cls-13" d="M186.8652,385.2221c-.2.1109-1.7614-2.3612-3.8065-5.3168-2.0379-2.9623-3.7945-5.2991-3.62-5.4469.1614-.14,2.2152,1.9919,4.2792,4.9917C185.7891,382.4437,187.0536,385.1208,186.8652,385.2221Z"/><path class="cls-13" d="M192.828,381.3931c-.1538.1758-2.8791-2.0272-6.4663-4.4061-3.5791-2.3935-6.662-4.0582-6.5591-4.2681.0861-.19,3.37,1.1725,7.0034,3.6012C190.4464,378.7351,192.9705,381.24,192.828,381.3931Z"/><path class="cls-13" d="M86.5313,467.4631c-.1984.0982-4.6573-8.5169-9.9578-19.24-5.3024-10.7264-9.4387-19.4986-9.24-19.5968s4.6561,8.5153,9.9585,19.2418C82.5925,458.591,86.73,467.3651,86.5313,467.4631Z"/><path class="cls-13" d="M44.5592,380.1722a6.4089,6.4089,0,0,1-.0994-1.6276l-.0152-4.4253c-.0005-3.7354-.0476-8.8932-.1527-14.5927-.1015-5.7014-.1985-10.8658-.207-14.605-.0052-1.87.0049-3.383.0331-4.4292a6.4029,6.4029,0,0,1,.1239-1.626,6.4078,6.4078,0,0,1,.188,1.62l.2215,4.4224c.1535,3.7352.34,8.8963.4417,14.604.1053,5.7055.0627,10.8769-.082,14.6167-.0691,1.87-.1531,3.3822-.24,4.4258A6.3994,6.3994,0,0,1,44.5592,380.1722Z"/><path class="cls-4" d="M272.7765,110.02a9.3,9.3,0,0,0-3.5188-9.6132,9.1753,9.1753,0,0,0-10.2184-.1182,9.054,9.054,0,0,0-3.5653,9.5575,8.9363,8.9363,0,0,0,7.8823,6.4461c3.0712.18,5.9762-1.2666,8.711-2.6752"/><path class="cls-14" d="M289.4146,101.1222l-26.872,50.3506,21.09,12.4946,7.1238-11.9354s6.8767,5.5972,12.64-.49c3.6818-3.8883,22.0314-39.29,22.0314-39.29Z"/><path class="cls-4" d="M327.6791,119.814c-3.0537,2.2416-12.9151,4.08-12.9151,4.08l-7.5856,6.7408c.4547-3.8137-6.0842-6.65-8.6237-1.8038-2.5382,4.8437,1.6783,7.0027,1.6783,7.0027-4.7591,2.9332-8.2819,5.4793-14.0719,7.6-6.2672,2.2951-8.7107,1.5668-13.0263-.6279l-4.7165-2.4987s-5.3793-13.1785,7.7818-33.41,28.6637-9.4374,35.9926-6.4426C313.5738,101.0179,337.8732,112.3309,327.6791,119.814Z"/><path class="cls-4" d="M307.1784,130.6343s-2.1574,6.913-5.429,6.0022a8.05,8.05,0,0,1-2.9145-1.9622l-6.0553,5.0514s-6.8187,8.3421-2.0231,12.3063c4.4378,3.6685,9.9634,5.7329,14.6418-1.8855l3.1564-5.6186s-4.419-1.2011-3.8472-3.2063,6.86-14.5878,6.86-14.5878Z"/><path class="cls-4" d="M316.5925,114.1967c.0472-.05.4045.2964,1.1612.7282a6.8486,6.8486,0,0,0,3.4746.92,5.6882,5.6882,0,0,0,4.518-2.3343,5.14,5.14,0,0,0,1.028-2.8416,6.1131,6.1131,0,0,0-.7945-3.1824,9.6879,9.6879,0,0,0-4.9546-4.12,34.4645,34.4645,0,0,0-5.2839-1.5877c-3.109-.7065-4.953-1.5015-4.9022-1.6124a5.87,5.87,0,0,1,1.3536.2874c.86.2113,2.11.4708,3.6708.7716a30.24,30.24,0,0,1,5.4436,1.4587,10.1883,10.1883,0,0,1,5.3763,4.4192,6.7994,6.7994,0,0,1,.8752,3.6042,5.82,5.82,0,0,1-1.2223,3.2477,6.1964,6.1964,0,0,1-5.1123,2.4566,6.613,6.613,0,0,1-3.6387-1.224C316.8456,114.651,316.5617,114.2236,316.5925,114.1967Z"/><path class="cls-18" d="M271.2423,115.3636c-.2076-.0773.1407-1.53.7773-3.2449a14.6144,14.6144,0,0,1,1.2572-2.7242l.071.2042c.1368-.0123.02-.0463.01-.0237-.0336.0032-.0419.0437-.0585.0677-.01.0234-.0881.0312-.1181-.0791-.01-.0636-.01-.3321.3435-.2553l.0893.02-.0184.1851a14.6242,14.6242,0,0,1-.8252,2.8845C272.1341,114.1125,271.45,115.4405,271.2423,115.3636Z"/><path class="cls-12" d="M304.8194,130.1948c-.07.0983-.4706-.13-1.134-.2381a2.4763,2.4763,0,0,0-2.2575.6945,1.8478,1.8478,0,0,0-.2926,2.1925c.304.5692.73.7561.6886.8709-.0034.0944-.5957.1081-1.1549-.5489a2.2449,2.2449,0,0,1-.5052-1.3773,2.45,2.45,0,0,1,.6765-1.6821,2.7732,2.7732,0,0,1,2.9922-.6968C304.5892,129.7,304.8832,130.1228,304.8194,130.1948Z"/><path class="cls-13" d="M272.5106,112.6625a6.3267,6.3267,0,0,1-2.86.5423,14.6278,14.6278,0,0,1-12.2872-5.9661,6.3273,6.3273,0,0,1-1.3423-2.5823c.1132-.0607.6511.9032,1.7867,2.2307a16.1674,16.1674,0,0,0,11.8444,5.7511C271.3981,112.71,272.4885,112.536,272.5106,112.6625Z"/><path class="cls-13" d="M265.3212,98.6779c.1624-.118,1.6674,2.9732,1.21,7.0411-.4125,4.0742-2.5366,6.777-2.67,6.6273-.22-.1178,1.4922-2.8644,1.8734-6.7124C266.1747,101.7938,265.0816,98.7466,265.3212,98.6779Z"/><path class="cls-13" d="M329.2869,113.0892a1.8356,1.8356,0,0,1-.2007.5934,6.5093,6.5093,0,0,1-.9878,1.5019,10.1031,10.1031,0,0,1-5.7512,3.1209c-2.7893.5832-6.1736.0555-9.6829-.9007-3.5039-.9068-7.38-2.22-11.4749-1.752-4.1085.444-7.14,3.5143-10.773,4.5654a11.0321,11.0321,0,0,1-5.2786.2112,15.6977,15.6977,0,0,1-4.3061-1.5495,28.9242,28.9242,0,0,1-5.332-3.8154,12.5593,12.5593,0,0,1-1.73-1.6591,15.0893,15.0893,0,0,1,1.928,1.4182,33.4262,33.4262,0,0,0,5.3923,3.552,12.4517,12.4517,0,0,0,9.1116,1.1363,26.9146,26.9146,0,0,0,5.038-2.4858,15.3319,15.3319,0,0,1,5.8507-2.1684c4.3512-.4886,8.2988.9042,11.7656,1.834,3.4727.9884,6.7259,1.5417,9.3885,1.0566a10.1729,10.1729,0,0,0,5.6238-2.7742A14.1123,14.1123,0,0,0,329.2869,113.0892Z"/><path class="cls-13" d="M313.7763,122.5984a14.1577,14.1577,0,0,0-6.7613-1.0049,26.1209,26.1209,0,0,0-7.2325,1.9013,89.5858,89.5858,0,0,1-8.7222,3.34,16.7279,16.7279,0,0,1-9.388.1206,17.0044,17.0044,0,0,1-6.7286-3.7019,15.2682,15.2682,0,0,1-3.247-4.0242,8.761,8.761,0,0,1-.6033-1.2685c-.1188-.2982-.1685-.4592-.1431-.47a21.544,21.544,0,0,0,4.3638,5.3342,17.0609,17.0609,0,0,0,6.5549,3.4191,16.3391,16.3391,0,0,0,8.9769-.1811c3.1335-.881,5.9774-2.2461,8.6694-3.2566a25.1353,25.1353,0,0,1,7.4572-1.7778,12.51,12.51,0,0,1,5.1315.6751,7.6123,7.6123,0,0,1,1.2732.6055C313.6532,122.4759,313.79,122.5742,313.7763,122.5984Z"/><path class="cls-13" d="M325.4235,108.3182c.0165.0222-.125.1533-.4123.384a10.2694,10.2694,0,0,1-1.3375.898,16.2824,16.2824,0,0,1-5.6035,1.91,25.2731,25.2731,0,0,1-8.7761-.24,75.7983,75.7983,0,0,1-10.29-2.9732,63.0352,63.0352,0,0,0-10.2173-2.7927,23.1581,23.1581,0,0,0-8.5357.0656,9.2156,9.2156,0,0,0-4.9534,2.7008,10.1463,10.1463,0,0,0-1.1178,1.7963c-.0264-.0076.01-.1965.1075-.5566a5.234,5.234,0,0,1,.7674-1.4353,9.1353,9.1353,0,0,1,5.06-3.0552,22.8008,22.8008,0,0,1,8.7839-.2454A59.455,59.455,0,0,1,299.26,107.538a82.2633,82.2633,0,0,0,10.1748,3.0075,25.8467,25.8467,0,0,0,8.5532.4043A19.4225,19.4225,0,0,0,325.4235,108.3182Z"/><path class="cls-13" d="M267.4742,128.682c.0716-.0119.17.7332.6217,1.9866a12.5862,12.5862,0,0,0,2.99,4.6791,11.16,11.16,0,0,0,7.3745,3.1771c3.1154.2136,6.38-1.2959,9.3-3.4047a38.147,38.147,0,0,0,4.0433-3.4326,25.9553,25.9553,0,0,1,3.9761-3.1357,18.0035,18.0035,0,0,1,8.037-2.8631,14.6642,14.6642,0,0,1,5.7189.6116,9.7016,9.7016,0,0,1,1.4576.5646c.3236.151.4872.2419.4763.2675-.0308.0778-.7179-.2255-2.0174-.5315a15.7412,15.7412,0,0,0-5.5766-.3486,17.984,17.984,0,0,0-7.6969,2.9209,26.0824,26.0824,0,0,0-3.8291,3.0786,37.3254,37.3254,0,0,1-4.12,3.5177,21.6131,21.6131,0,0,1-4.7576,2.656,11.7316,11.7316,0,0,1-12.7884-2.6789,12.0314,12.0314,0,0,1-2.8845-4.9815,9.7687,9.7687,0,0,1-.3149-1.535C267.451,128.8733,267.4468,128.6858,267.4742,128.682Z"/><path class="cls-6" d="M204.6938,200.2879,190.385,231.0686l-13.6372,26.3527L248.43,288.9288l22.5921-49.8131c5.5247-11.5221,11.5454-23.3957,16.7843-33.9594,5.6594.7109,58.27,7.34,61.5068,8.5041,3.4206,1.23,60.2267-36.6419,60.2267-36.6419a194.4445,194.4445,0,0,0-10.8193-19.1139s-46.9446,23.8041-50.4192,24.8722-47.5728-15.4943-47.5738-15.4944c-9.3994-4.234-21.6711-12.7843-34.0933-18.4795a30.0826,30.0826,0,0,0-36.6713,9.309C223.4961,166.7972,214.9945,180.1023,204.6938,200.2879Z"/><path class="cls-19" d="M237.0915,187.1492c-.2179.0394-.7581-1.9377-1.2065-4.4153s-.6357-4.5192-.4178-4.5586.7577,1.9373,1.2063,4.4158S237.3091,187.11,237.0915,187.1492Z"/><path class="cls-19" d="M244.436,203.9094c.0929.2008-2.4989,1.596-5.7882,3.1158s-6.0319,2.5894-6.1248,2.3885,2.4984-1.5957,5.7888-3.1161S244.3432,203.7085,244.436,203.9094Z"/><path class="cls-19" d="M218.4375,199.817c-.2211-.0081-.3345-1.819-.2531-4.0442s.3265-4.0234.5478-4.0152.3344,1.8184.253,4.0445S218.6586,199.825,218.4375,199.817Z"/><path class="cls-19" d="M223.8514,212.1884c.0354.2185-2.2936.7766-5.2014,1.2465s-5.2943.6736-5.33.4551,2.2932-.7765,5.2019-1.2463S223.8162,211.97,223.8514,212.1884Z"/><path class="cls-19" d="M222.5733,224.0181c.2211-.0123.5078,1.9051.6406,4.282s.0614,4.3147-.16,4.327-.5077-1.9045-.6405-4.2823S222.3524,224.0306,222.5733,224.0181Z"/><path class="cls-19" d="M207.4772,228.3516c.0882.2031-2.0143,1.3123-4.6953,2.4774s-4.927,1.9455-5.0153,1.7424,2.0139-1.3119,4.6959-2.4774S207.389,228.1488,207.4772,228.3516Z"/><path class="cls-19" d="M211.8162,248.3134c-.1985.0708-1.07-2-1.38-4.73-.3225-2.73.053-4.9444.2624-4.9207.2311.0171.22,2.19.5337,4.8285C211.5305,246.1308,212.0374,248.2439,211.8162,248.3134Z"/><path class="cls-19" d="M196.042,253.3883c-.2134-.0584.0424-1.6693.5713-3.5973s1.1307-3.4443,1.3441-3.3859-.0423,1.669-.5714,3.5978S196.2555,253.447,196.042,253.3883Z"/><path class="cls-19" d="M219.9494,268.5171c-.1391.1722-1.746-.8952-3.5885-2.3839s-3.2244-2.8356-3.0852-3.0078,1.7455.8953,3.5888,2.3844S220.0885,268.3451,219.9494,268.5171Z"/><path class="cls-19" d="M231.6977,248.425c.1988.0794-.4188,2.0429-1.7136,4.2076-1.2879,2.17-2.7205,3.647-2.885,3.51-.1781-.1429.9427-1.8061,2.1965-3.92C230.5576,250.1142,231.4872,248.3365,231.6977,248.425Z"/><path class="cls-19" d="M242.191,274.9348c-.2135.0414-.7761-1.9611-1.0573-4.5-.2861-2.5386-.1793-4.6154.0381-4.6222.225-.0081.4758,2.0287.7584,4.5332C242.2073,272.8508,242.4123,274.8931,242.191,274.9348Z"/><path class="cls-19" d="M254.4424,255.164c-.0031-.0565.16-.1194.4621-.1848l.028.3171a41.5092,41.5092,0,0,1-5.1493.8762c-3.1195.3837-5.6693.5163-5.6964.2966s2.4791-.7084,5.5986-1.0918a41.5026,41.5026,0,0,1,5.2081-.3972l.0282.3171C254.6148,255.2651,254.4454,255.2205,254.4424,255.164Z"/><path class="cls-19" d="M243.0743,244.058c-.2139.04-.8489-2.4262-1.2216-5.5354-.3774-3.11-.3468-5.6554-.13-5.6676.2247-.0134.5511,2.4894.9255,5.5716C243.0176,241.5084,243.2957,244.0176,243.0743,244.058Z"/><path class="cls-19" d="M262.7366,232.3356c.0413.2238-1.905.7571-4.2651,1.4979-2.3635.733-4.2674,1.4008-4.3605,1.1932-.0908-.1948,1.7052-1.2082,4.1218-1.9583C260.6463,232.3115,262.7,232.1237,262.7366,232.3356Z"/><path class="cls-19" d="M247.8772,217.5289c.0491.2157-1.7739.8143-4.0712,1.3369s-4.2.7713-4.25.5555,1.7735-.8143,4.0717-1.3369S247.8282,217.3132,247.8772,217.5289Z"/><path class="cls-19" d="M260.8477,215.7412c-.2183.0362-.6888-2.4864-1.05-5.6336s-.4748-5.7114-.2538-5.7257.6911,2.5079,1.05,5.6343S261.0659,215.7049,260.8477,215.7412Z"/><path class="cls-19" d="M281.2278,206.1688c.17.1419-1.2269,2.291-3.12,4.7995s-3.5767,4.4415-3.76,4.317,1.2135-2.2732,3.12-4.8S281.058,206.0271,281.2278,206.1688Z"/><path class="cls-19" d="M270.5549,203.7678c-.2176-.04.0168-2.29.5234-5.024s1.0938-4.9187,1.3114-4.8784-.0166,2.29-.5235,5.0245S270.7725,203.8081,270.5549,203.7678Z"/><path class="cls-19" d="M258.3662,190.7384c-.0151.2208-2.4047.237-5.3367.0362s-5.2977-.5426-5.2826-.7636,2.4043-.2368,5.3373-.036S258.3814,190.5177,258.3662,190.7384Z"/><path class="cls-19" d="M229.6151,165.67c.1808.1462-1.42,2.3593-3.0871,5.264-1.681,2.8978-2.7952,5.3911-3.0124,5.3077-.1983-.0688.6-2.7443,2.3183-5.7082C227.5393,167.564,229.4563,165.5329,229.6151,165.67Z"/><path class="cls-19" d="M243.7258,166.1261c-.2087.0417-.7753-2.0536-.8157-4.7119-.0507-2.6591.4438-4.772.6538-4.7376.2275.0317.0973,2.1384.1474,4.7238C243.75,163.9851,243.952,166.0865,243.7258,166.1261Z"/><path class="cls-19" d="M259.7721,150.5513c.0289.2235-1.8982.6522-4.27,1.1464-2.3734.49-4.3117.8624-4.3739.646-.061-.2086,1.8041-.9339,4.2111-1.4306C257.745,150.4119,259.7451,150.3357,259.7721,150.5513Z"/><path class="cls-19" d="M259.4329,171.847c.0811.2162-1.7826,1.0813-3.9322,2.3806-2.1574,1.2878-3.7962,2.5262-3.949,2.3531-.1453-.1539,1.3049-1.7065,3.5365-3.04C257.313,172.1975,259.3652,171.6465,259.4329,171.847Z"/><path class="cls-19" d="M267.4485,167.159c-.1642.1483-1.7359-1.323-3.5105-3.2857s-3.08-3.6752-2.9162-3.8236,1.7357,1.3225,3.5108,3.286S267.6127,167.0106,267.4485,167.159Z"/><path class="cls-19" d="M203.14,215.01c-.2-.0827.3889-1.9472,1.5293-4.0574,1.1358-2.1136,2.3687-3.63,2.5481-3.5088.1878.1253-.7277,1.8133-1.8427,3.8889C204.2543,213.4048,203.3476,215.0982,203.14,215.01Z"/><path class="cls-19" d="M184.93,253.78c-.2036-.0868.4032-1.9688,1.3553-4.2031s1.8889-3.9762,2.0926-3.8894-.4032,1.9683-1.3554,4.2034S185.1339,253.8669,184.93,253.78Z"/><path class="cls-19" d="M276.8747,178.0243c.0751.2082-2.152,1.2023-4.9739,2.22s-5.1712,1.6747-5.2465,1.4665,2.1518-1.202,4.9746-2.22S276.8,177.8163,276.8747,178.0243Z"/><path class="cls-19" d="M291.5418,168.1946c-.1214.1925-2.0073-.7959-4.3634-1.9219-2.3532-1.1339-4.3036-1.9864-4.2293-2.2017.0673-.2041,2.1742.3225,4.5762,1.4793C289.93,166.7,291.6589,168.0144,291.5418,168.1946Z"/><path class="cls-19" d="M291.1394,187.0668c-.2.0706-1.0249-1.8509-1.3556-4.3874-.3418-2.536-.0462-4.6057.1654-4.5895.23.01.2972,2.0318.6289,4.4841C290.8968,185.027,291.3589,186.9967,291.1394,187.0668Z"/><path class="cls-19" d="M290.0711,196.6433c-.162.1438-1.8058-1.4574-3.4782-3.7267-1.6776-2.2667-2.7242-4.3083-2.5394-4.421.1922-.1188,1.5285,1.7087,3.184,3.9449C288.8873,194.68,290.2413,196.4947,290.0711,196.6433Z"/><path class="cls-19" d="M306.647,194.745c.0956.2055-1.3183,1.0551-3.0262,2.129-1.7126,1.0684-3.0937,1.9694-3.2368,1.7938-.1383-.1659,1.0506-1.3739,2.8113-2.4729C304.9522,195.091,306.5582,194.5482,306.647,194.745Z"/><path class="cls-19" d="M302.4049,180.6377c-.2105.0543-.8314-1.6666-1.19-3.8809-.3638-2.2144-.3222-4.043-.1052-4.0584.2243-.0174.5384,1.7532.8962,3.9293C302.358,178.804,302.6233,180.5828,302.4049,180.6377Z"/><path class="cls-19" d="M317.1041,186.1616c-.012.221-2.4.2708-5.3325.1116s-5.3014-.4678-5.2894-.6888,2.3992-.2708,5.333-.1114S317.1161,185.9406,317.1041,186.1616Z"/><path class="cls-19" d="M331.2792,184.6194c-.07.2-2.1648-.3869-4.4525-1.75-2.294-1.354-3.8136-2.91-3.6716-3.0678.1493-.1755,1.8551,1.0666,4.08,2.3786C329.4534,183.503,331.3618,184.4043,331.2792,184.6194Z"/><path class="cls-19" d="M324.1387,203.7205c-.0086.2212-2.5874.3015-5.7592.18s-5.7375-.4-5.729-.6216,2.5867-.3013,5.76-.1792S324.1472,203.4994,324.1387,203.7205Z"/><path class="cls-19" d="M330.067,198.311c-.1151.1891-2.0315-.7673-4.28-2.1358s-3.9788-2.6315-3.8637-2.8206,2.0311.7671,4.28,2.136S330.182,198.122,330.067,198.311Z"/><path class="cls-19" d="M342.7494,197.8664c-.2179.04-.7255-1.744-1.1342-3.9834s-.5635-4.0879-.3456-4.1276.7252,1.7435,1.1341,3.9837S342.967,197.8267,342.7494,197.8664Z"/><path class="cls-19" d="M345.3465,205.8649c.068.2013-2.3459,1.169-5.4916,1.7107-3.1449.5525-5.7434.4564-5.7474.2439-.009-.23,2.5273-.4912,5.61-1.0335C342.8015,206.2558,345.2776,205.6455,345.3465,205.8649Z"/><path class="cls-19" d="M354.7163,203.4928c-.219-.0331-.1417-1.742.1723-3.8163s.746-3.73.9649-3.6967.1415,1.7415-.1725,3.8166S354.9349,203.5259,354.7163,203.4928Z"/><path class="cls-19" d="M357.2069,187.9085c.0581.2036-1.5161.7836-3.5538.7371-2.0386-.0351-3.5881-.6777-3.5218-.8787.0616-.2225,1.6184.0468,3.5378.0774C355.5876,187.8906,357.1542,187.6838,357.2069,187.9085Z"/><path class="cls-19" d="M365.8535,184.8587c-.2163-.0471.0316-2.0293.5534-4.4266s1.12-4.3036,1.3366-4.2565-.0315,2.0286-.5535,4.4268S366.07,184.9056,365.8535,184.8587Z"/><path class="cls-19" d="M373.5667,195.38c-.0575.2137-2.679-.3061-5.8546-1.1608s-5.7042-1.721-5.6467-1.9347,2.6785.3059,5.8551,1.1608S373.6241,195.1664,373.5667,195.38Z"/><path class="cls-19" d="M384.2882,185.6309c.0974.1988-1.3215,1.0935-3.1686,1.9983s-3.4242,1.4774-3.5216,1.2786,1.3212-1.0932,3.1691-1.9983S384.191,185.4324,384.2882,185.6309Z"/><path class="cls-19" d="M376.4477,182.5132c-.1831-.1243.9387-2.0945,2.5051-4.4s2.985-4.0743,3.1681-3.95-.9383,2.094-2.5053,4.4S376.6307,182.6375,376.4477,182.5132Z"/><path class="cls-19" d="M392.5776,166.6959c.0163.2208-1.9379.5445-4.3643.7228s-4.4072.1443-4.4235-.0765,1.9377-.5441,4.3647-.7226S392.5614,166.4753,392.5776,166.6959Z"/><path class="cls-19" d="M395.4859,171.969c-.2132-.0591.1507-2.0466.8127-4.439s1.3719-4.2846,1.5851-4.2255-.15,2.0462-.8128,4.4392S395.6992,172.028,395.4859,171.969Z"/><path class="cls-19" d="M397.4376,178.4213c-.0041.2213-1.8515.3659-4.1256.3233s-4.1152-.2567-4.1111-.4779,1.8511-.3661,4.1261-.3233S397.4418,178.2,397.4376,178.4213Z"/></g></svg>