<svg xmlns="http://www.w3.org/2000/svg" xmlns:xlink="http://www.w3.org/1999/xlink" viewBox="0 0 639.30158 309.31858">
  <defs>
    <style>
      .cls-1 {
        isolation: isolate;
      }

      .cls-2 {
        fill: #e4ebf7;
      }

      .cls-3, .cls-4 {
        fill: #fff;
      }

      .cls-4 {
        stroke: #0f22d3;
        stroke-miterlimit: 10;
        stroke-width: 1.61026px;
      }

      .cls-5 {
        fill: #98b2d8;
      }

      .cls-6 {
        fill: #b1c3e8;
      }

      .cls-7 {
        fill: #b7cae5;
      }

      .cls-8 {
        fill: #97b3d1;
      }

      .cls-9 {
        fill: #ced9ea;
      }

      .cls-10 {
        fill: #b6c5dd;
      }

      .cls-11 {
        fill: #5d7ca0;
      }

      .cls-12 {
        fill: #799cbf;
      }

      .cls-13 {
        fill: #f2f4f9;
      }

      .cls-14 {
        fill: #c1cfe5;
      }

      .cls-15 {
        fill: url(#linear-gradient);
      }

      .cls-16, .cls-19 {
        fill: #1f395e;
      }

      .cls-16 {
        opacity: 0.22;
      }

      .cls-16, .cls-25, .cls-26, .cls-32, .cls-34, .cls-36, .cls-37 {
        mix-blend-mode: multiply;
      }

      .cls-17 {
        fill: url(#linear-gradient-2);
      }

      .cls-18 {
        fill: url(#linear-gradient-3);
      }

      .cls-20 {
        fill: url(#linear-gradient-4);
      }

      .cls-21 {
        fill: #3150bc;
      }

      .cls-22 {
        fill: #feb19e;
      }

      .cls-23 {
        fill: #ff856a;
      }

      .cls-24 {
        fill: url(#linear-gradient-5);
      }

      .cls-25, .cls-27, .cls-37 {
        fill: #9abced;
      }

      .cls-25 {
        opacity: 0.6;
      }

      .cls-28 {
        fill: #c1c8d3;
      }

      .cls-29 {
        fill: url(#linear-gradient-6);
      }

      .cls-30 {
        fill: url(#linear-gradient-7);
      }

      .cls-31 {
        fill: #4f7eb7;
      }

      .cls-32, .cls-35 {
        fill: #7ca6d8;
      }

      .cls-32 {
        opacity: 0.71;
      }

      .cls-33 {
        fill: #ea9ba1;
      }

      .cls-34, .cls-37 {
        opacity: 0.5;
      }

      .cls-36 {
        fill: #e83f54;
      }
    </style>
    <linearGradient id="linear-gradient" x1="372.23964" y1="396.53146" x2="372.23964" y2="299.64705" gradientUnits="userSpaceOnUse">
      <stop offset="0" stop-color="#1f3a65"/>
      <stop offset="1" stop-color="#294a7a"/>
    </linearGradient>
    <linearGradient id="linear-gradient-2" x1="313.78843" y1="404.04597" x2="313.78843" y2="378.00094" xlink:href="#linear-gradient"/>
    <linearGradient id="linear-gradient-3" x1="423.05645" y1="404.04599" x2="423.05645" y2="378.00094" xlink:href="#linear-gradient"/>
    <linearGradient id="linear-gradient-4" x1="391.5076" y1="394.25808" x2="357.69213" y2="340.58268" gradientUnits="userSpaceOnUse">
      <stop offset="0" stop-color="#3855e1"/>
      <stop offset="1" stop-color="#5c7ef7"/>
    </linearGradient>
    <linearGradient id="linear-gradient-5" x1="366.07515" y1="262.97498" x2="364.99425" y2="220.82007" gradientUnits="userSpaceOnUse">
      <stop offset="0" stop-color="#3f2323"/>
      <stop offset="1" stop-color="#5e3434"/>
    </linearGradient>
    <linearGradient id="linear-gradient-6" x1="445.22929" y1="285.91928" x2="466.16269" y2="285.91928" xlink:href="#linear-gradient"/>
    <linearGradient id="linear-gradient-7" x1="530.47354" y1="318.01809" x2="503.90418" y2="370.75432" gradientUnits="userSpaceOnUse">
      <stop offset="0" stop-color="#e2e8f7"/>
      <stop offset="1" stop-color="#fff"/>
    </linearGradient>
  </defs>
  <title>intro-img</title>
  <g class="cls-1">
    <g id="OBJECTS">
      <g>
        <g>
          <path class="cls-2" d="M623.43778,284.0439a314.9605,314.9605,0,0,1-3.3655,49.7249c-.161,1.1111-.3381,2.2221-.53128,3.301-1.19172,7.1978-2.64092,13.9127-4.28342,20.1121q-.4347,1.59435-.8695,3.1401c-6.3122,22.0606-15.2814,36.9716-24.84629,42.4787H187.733s-34.2502-29.6932-41.126-72.1076c-.1771-1.0788-.3382-2.1577-.4671-3.2526-2.673-21.1107,1.6264-45.1519,20.1283-70.1592,8.4379-11.3845,19.5325-19.307,32.26969-24.7658.9984-.4187,1.9806-.8213,2.99511-1.2077,18.88829-7.3912,41.07779-9.7099,63.36379-10.0641,1.12721-.0162,2.2544-.0323,3.3816-.0323,13.2685-.0966,26.5049.4509,39.0488.9501,1.1916.0644,2.3671.1127,3.5426.161,20.257.8535,38.5175,1.4814,51.7699-.95h.0161c1.2238-.2255,2.38321-.4832,3.5104-.773h.0161c14.6694-3.5908,21.8995-11.9159,16.6984-29.822-10.0803-34.7333.2416-60.1916,22.7047-74.2492,1.1433-.7247,2.3348-1.4171,3.5425-2.0772,12.705-6.892,28.7594-10.499,46.92311-10.4506,1.27209,0,2.56039.0321,3.86469.0644a176.10531,176.10531,0,0,1,49.8054,9.3233,158.22973,158.22973,0,0,1,26.3277,11.4491c.9984.5474,1.9967,1.1111,2.9629,1.6907a153.28489,153.28489,0,0,1,40.4659,33.9765c.7568.8696,1.48141,1.7552,2.2061,2.657C610.55568,198.7482,623.14788,244.6891,623.43778,284.0439Z" transform="translate(-55.3492 -104.00002)"/>
          <path class="cls-3" d="M615.25758,357.1819q-.4347,1.59435-.8695,3.1401a133.34184,133.34184,0,0,1-18.5825-8.309c-29.46779-16.006-66.98689-51.6572-78.35529-130.6889-4.8952-34.0731,1.35271-66.5199,18.5985-96.4868.9984.5474,1.9967,1.1111,2.9629,1.6907-15.1365,26.2795-23.6386,57.6957-18.3731,94.3292,11.1752,77.6307,47.7926,112.5895,76.55189,128.2412A126.47956,126.47956,0,0,0,615.25758,357.1819Z" transform="translate(-55.3492 -104.00002)"/>
          <path class="cls-3" d="M620.07228,333.7688c-.161,1.1111-.3381,2.2221-.53128,3.301-18.61472-8.7437-42.07621-27.7609-53.026-69.0481-10.57941-39.9828-6.36051-75.4729,12.96259-107.5172.7568.8696,1.48141,1.7552,2.2061,2.657-18.3732,31.0458-22.2861,65.3927-12.0449,104.039C580.10559,306.7003,602.27888,325.1538,620.07228,333.7688Z" transform="translate(-55.3492 -104.00002)"/>
          <path class="cls-3" d="M444.37659,171.4865c1.562,52.4624-4.4121,86.3584-19.3714,109.9326-15.6679,24.7014-41.8024,39.6286-84.7481,48.4045a117.64262,117.64262,0,0,1-23.6709,2.4637c-24.17,0-46.9391-7.8741-66.89019-23.2682-23.20391-17.9223-40.96511-44.9103-51.15811-76.5036.9984-.4187,1.9806-.8213,2.99511-1.2077,9.98359,31.0619,27.39059,57.599,50.14359,75.167,25.5709,19.758,55.9888,26.7303,87.93641,20.2088,79.86889-16.3441,104.53809-54.0404,101.54309-155.1005-.8534-28.6949,4.1545-51.3351,14.89491-67.5826,1.27209,0,2.56039.0321,3.86469.0644C448.74039,119.8454,443.52319,142.4535,444.37659,171.4865Z" transform="translate(-55.3492 -104.00002)"/>
          <path class="cls-3" d="M344.71749,280.0504a62.93522,62.93522,0,0,1-10.2413.8373c-25.7481,0-55.2319-15.6034-69.5794-59.644,1.12721-.0162,2.2544-.0323,3.3816-.0323,15.8128,47.2773,49.7088,59.9662,75.9077,55.6668,35.3936-5.7969,69.4345-42.2372,62.8485-98.3548-2.8341-24.0735-2.9628-44.6203-1.4492-61.9951,1.1433-.7247,2.3348-1.4171,3.5425-2.0772-1.7551,17.6967-1.8196,38.7911,1.11111,63.7019C417.05049,236.2513,381.56029,274.0119,344.71749,280.0504Z" transform="translate(-55.3492 -104.00002)"/>
          <path class="cls-3" d="M366.16619,220.5995a41.00507,41.00507,0,0,1-7.1335,16.2637c-4.9435,6.4732-11.88369,10.3056-20.6274,11.3845a25.29924,25.29924,0,0,1-3.0917.1933,22.53222,22.53222,0,0,1-14.8144-5.5554c-5.82919-4.8953-10.0803-12.4957-13.172-20.7241,1.1916.0644,2.3671.1127,3.5426.161,2.86621,7.2784,6.6664,13.8643,11.7066,18.0993a19.4712,19.4712,0,0,0,15.4263,4.6376c7.8581-.9661,14.0576-4.3799,18.4698-10.1285a36.60867,36.60867,0,0,0,6.1672-13.5584h.0161C363.87959,221.147,365.039,220.8893,366.16619,220.5995Z" transform="translate(-55.3492 -104.00002)"/>
          <path class="cls-3" d="M241.12939,402.8007H237.619c-14.44411-33.0748-35.26481-55.1193-61.9629-65.5699a101.36308,101.36308,0,0,0-29.0491-6.5377c-.1771-1.0788-.3382-2.1577-.4671-3.2526a104.82322,104.82322,0,0,1,30.6917,6.7952C204.70529,345.1533,226.31489,368.1801,241.12939,402.8007Z" transform="translate(-55.3492 -104.00002)"/>
        </g>
        <g>
          <polygon class="cls-4" points="407.658 358.485 407.658 358.485 407.658 358.485 407.658 358.485 407.658 358.485"/>
          <g>
            <g>
              <g>
                <path class="cls-5" d="M171.4298,303.1204l-9.9514,10.2573-4.1545-6.1029-1.3848-2.045c-4.4283,1.1111-10.9659-7.5521-13.5907-12.1736-2.6086-4.6375,7.8581-11.7871,7.8581-11.7871-1.7068-5.1206-8.5666-8.3412-8.7598-9.7582-.1932-1.4009,1.5137-2.9146,7.7454,0,6.2478,2.9307,11.6744,13.2847,11.6744,13.2847,1.111-3.0112-3.8164-11.1591-2.9146-12.077.9017-.9017,5.7325.2093,9.4522,8.0513,3.7358,7.8581,1.5137,17.1171,1.5137,17.1171l.0483.0805Z" transform="translate(-55.3492 -104.00002)"/>
                <path class="cls-6" d="M149.8376,280.367s7.3943,8.4582,6.5969,11.7794-4.5211-.5328-4.5211-.5328,3.4218,3.9546,2.3148,5.263-5.2334-2.0129-5.2334-2.0129,4.9314,6.1392,0,5.2334-11.1259-10.2065-6.3681-11.1417c0,0-.5761-6.7725,3.7514-4.4577C146.3781,284.4977,144.4406,278.8531,149.8376,280.367Z" transform="translate(-55.3492 -104.00002)"/>
              </g>
              <path class="cls-7" d="M239.68349,402.86s8.325-24.315,3.9452-48.2918a1.03072,1.03072,0,0,1-.0323-.161,1.18982,1.18982,0,0,0-.0322-.1933q-.19335-.942-.3865-1.8839a101.19117,101.19117,0,0,1-11.4973,8.4055c-8.0029,5.0401-18.679,10.048-26.8752,7.6971-15.03979-4.2995-37.03609-33.5418-47.24509-56.633a26.77,26.77,0,0,1,15.2975-9.9997s20.402,27.1813,38.38859,33.6223a132.68629,132.68629,0,0,0,17.1655-28.4534c4.7985-10.7887,11.9964-17.6162,21.0782-21.2876a49.14192,49.14192,0,0,1,17.1816-3.3815l15.7644-7.3589a59.281,59.281,0,0,1,6.5377.5313c7.3911.9662,19.6773,3.6714,29.6127,11.2397,15.2975,11.6583,37.3098,116.1482,37.3098,116.1482Z" transform="translate(-55.3492 -104.00002)"/>
              <path class="cls-8" d="M243.59639,354.4072c-.1288-.6924-.2737-1.3848-.4187-2.0772a101.19117,101.19117,0,0,1-11.4973,8.4055l4.6537-39.8057C241.06829,339.158,243.33869,352.7808,243.59639,354.4072Z" transform="translate(-55.3492 -104.00002)"/>
              <path class="cls-9" d="M288.97359,275.4721c-2.4315,15.4586-17.9061,29.7416-29.0813,29.5484-8.98529-.1611-10.3058-13.0432-10.4024-19.3393a49.14192,49.14192,0,0,1,17.1816-3.3815l15.7644-7.3589A59.281,59.281,0,0,1,288.97359,275.4721Z" transform="translate(-55.3492 -104.00002)"/>
              <path class="cls-8" d="M262.22329,387.061s35.5021-36.9452,37.0452-75.7927l10.4667,32.742-4.0256,34.0887Z" transform="translate(-55.3492 -104.00002)"/>
              <path class="cls-5" d="M261.19249,402.8519h-39.7533a8.12582,8.12582,0,0,1,6.23981-7.2462c6.13909-1.8115,10.06409-9.4602,28.48149-8.4538Z" transform="translate(-55.3492 -104.00002)"/>
              <path class="cls-10" d="M301.86419,366.3171s-18.7286,10.7706-48.2198,18.4194c0,0-4.0927,9.8628,3.0864,18.1154h57.0577Z" transform="translate(-55.3492 -104.00002)"/>
            </g>
            <g>
              <path class="cls-11" d="M232.12679,253.4094s-8.4772-11.7023-7.4349-19.5809,8.3363-6.0284,8.3363-6.0284-.3397-19.1452,17.3825-14.2502c0,0-.3901-5.8454,3.4798-5.694s9.9381,9.0526,9.9381,9.0526,1.5061-6.5945,4.127-5.038,3.4295,8.3627,8.9035,11.6385,8.8603,7.5158,4.5624,20.7992-1.07349,14.224-2.60849,21.0442c-1.45771,6.4772-2.62241,10.4176-6.64281,10.7814s-19.4097-15.8721-19.4097-15.8721Z" transform="translate(-55.3492 -104.00002)"/>
              <path class="cls-5" d="M282.43589,274.9408s-9.87089,23.9446-20.241,22.1411c-5.1528-.9018-6.2961-4.0418-6.3444-7.681-.0483-4.7503,1.80351-10.3217-.9984-12.6566l12.4312-17.6647,2.7375-3.8968A64.42788,64.42788,0,0,0,282.43589,274.9408Z" transform="translate(-55.3492 -104.00002)"/>
              <path class="cls-12" d="M255.85049,289.4009c-.0483-4.7503,1.80351-10.3217-.9984-12.6566l12.4312-17.6647c1.0628,1.24,1.8196,3.446,2.1256,6.9081C271.05139,284.2319,261.40589,288.4669,255.85049,289.4009Z" transform="translate(-55.3492 -104.00002)"/>
              <path class="cls-5" d="M230.91929,244.0991S234.28,274.9433,246.866,281.8858c10.93829,6.0337,24.22289-12.216,23.95609-21.2431,0,0,4.7675-3.6405,3.9721-9.5343s-7.0276-3.9391-7.7738,5.5585c0,0-5.0669-.3611-6.0041-12.2323-3.1814,2.6339-6.6139,1.822-10.2207-1.3818,0,0-1.7893,6.6069-10.9978-1.1143C239.79779,241.9385,236.32369,246.6556,230.91929,244.0991Z" transform="translate(-55.3492 -104.00002)"/>
            </g>
          </g>
          <g>
            <g>
              <path class="cls-11" d="M527.79149,363.6018s16.24551,27.1061,21.8728,40.2565h-57.2855a235.1263,235.1263,0,0,0-9.0036-31.07Z" transform="translate(-55.3492 -104.00002)"/>
              <path class="cls-12" d="M505.44919,369.6403c-3.13519,10.3883-7.9154,19.258-15.0071,25.994l1.9367,8.224-69.3223-.8556,7.7168-47.4522Z" transform="translate(-55.3492 -104.00002)"/>
            </g>
            <g>
              <path class="cls-12" d="M614.19568,221.7108s2.2944-14.3715,6.8569-19.4707,17.0419-12.6423,18.518-9.9585-11.0035,11.0991-11.0035,11.0991,5.63592-1.3419,10.4667,6.9778-10.7351,14.7608-10.7351,14.7608l-3.0863,6.9778-12.3453-7.783Z" transform="translate(-55.3492 -104.00002)"/>
              <path class="cls-5" d="M630.15958,203.6527s-6.9563,7.0734-5.9391,9.0946,4.8513-1.1549,4.8513-1.1549-3.1299,4.7642-.7043,5.9914,6.18152-2.8874,6.18152-2.8874-3.12992,4.3311-1.33022,5.1251,11.424-5.9906,9.7026-7.5791-2.66038-.2891-2.66038-.2891,2.014-3.3927,0-4.4755a2.3232,2.3232,0,0,0-3.28632.9384s1.6431-2.5987.3129-3.6093-4.147.2888-4.147.2888S634.06428,200.7661,630.15958,203.6527Z" transform="translate(-55.3492 -104.00002)"/>
              <path class="cls-5" d="M623.70278,203.4814c-2.1135-.6039-6.4076,3.7907-6.4076,3.7907-1.6887,2.173-2.0341,6.5028-2.1019,8.4993-.2165,5.5761-2.32628,8.5427-2.32628,8.5427l6.26508,3.9497c4.8515-6.2495,3.2643-14.2541,2.48092-17.0854C623.97788,207.6449,624.96358,203.8416,623.70278,203.4814Z" transform="translate(-55.3492 -104.00002)"/>
            </g>
            <g>
              <path class="cls-7" d="M627.75658,233.5731s-20.9334,55.7473-54.20139,60.6908a171.19444,171.19444,0,0,1-33.9765,2.0128c-9.3718-.483-13.9771-1.9001-14.3153-1.9967a.01577.01577,0,0,1-.0161-.0161s-9.1302,17.0044-3.2205,41.432c5.8936,24.4116,8.0513,29.5162,8.0513,29.5162s-44.8458,32.9781-81.3182,2.9467l-32.9138-51.1741-10.3056-16.0383s9.4683-31.0941,36.1664-51.3029l.01611-.0161a81.70866,81.70866,0,0,1,37.97-15.9738,96.53029,96.53029,0,0,1,25.95739-.2416s7.2462,2.0451,19.0334,6.3606c6.3444,2.3188,14.0093,5.2978,22.5597,8.9692,24.4277,10.4667,31.14251,13.5906,31.14251,13.5906s26.02178-25.6676,32.73658-41.2388C611.12258,221.0936,624.53608,222.4462,627.75658,233.5731Z" transform="translate(-55.3492 -104.00002)"/>
              <path class="cls-8" d="M459.80939,259.0262c-.1208,12.4942-2.7909,24.5992-3.9666,34.0016l20.6858-4.1874,32.1876,31.823s4.078,9.3242-4.224,10.9344c-6.5055,1.2618-36.9055,5.4898-36.9055,5.4898-7.00569,9.5354-10.1716,24.1221-13.6661,38.2763l-30.8641-53.6289Z" transform="translate(-55.3492 -104.00002)"/>
              <path class="cls-9" d="M505.65039,262.0264c-14.4118-3.6553-21.9961-16.6179-25.95739-28.3728a96.53029,96.53029,0,0,1,25.95739-.2416s7.2462,2.0451,19.0334,6.3606C526.06859,250.0622,525.56939,267.0666,505.65039,262.0264Z" transform="translate(-55.3492 -104.00002)"/>
              <path class="cls-8" d="M543.49159,273.4271a157.26736,157.26736,0,0,0-3.9129,22.8496c-9.3718-.483-13.9771-1.9001-14.3153-1.9967a.01577.01577,0,0,1-.0161-.0161S533.42749,280.2707,543.49159,273.4271Z" transform="translate(-55.3492 -104.00002)"/>
            </g>
            <g>
              <path class="cls-13" d="M467.13468,269.70615h36.32375a1.9457,1.9457,0,0,1,1.9457,1.9457v55.28571a1.9457,1.9457,0,0,1-1.9457,1.9457H467.1347a1.94574,1.94574,0,0,1-1.94574-1.94574V271.65188a1.94573,1.94573,0,0,1,1.94573-1.94573Z" transform="translate(-93.30583 -31.19189) rotate(-8.25814)"/>
              <path class="cls-5" d="M481.36229,291.14l5.5018-2.147s5.2333-14.4924,11.7415-5.3676c0,0,4.4953-2.6837,4.3611-4.1598s-.2013-3.6231-.2013-3.6231,9.1087,1.9685,7.0704,14.6715-9.8213,11.0927-17.47,11.2269l-9.5274,3.7573Z" transform="translate(-55.3492 -104.00002)"/>
              <path class="cls-14" d="M484.91029,308.8529s-42.8652,28.3728-61.3832,14.6856a74.42219,74.42219,0,0,1-7.681-6.5538l-10.3056-16.0383s9.4683-31.0941,36.1664-51.3029l.01611-.0161c8.84959-3.9758,18.09639-2.5283,18.57169,5.67,1.13231,19.5292-15.5705,31.5378-17.63769,40.3996l38.42079-7.7775S487.32569,294.5537,484.91029,308.8529Z" transform="translate(-55.3492 -104.00002)"/>
            </g>
            <g>
              <path class="cls-11" d="M535.29789,203.6984s6.1256-13.0876,3.6205-20.6297-9.3212-4.3534-9.3212-4.3534-3.26619-18.8676-19.7519-10.7276c0,0-.7159-5.8144-4.4884-4.9381s-8.0586,10.7598-8.0586,10.7598-2.7192-6.1937-5.0008-4.1722-1.7958,8.8585-6.5562,13.1051-7.289,9.0477-.5701,21.2861,3.7289,13.7684,6.51881,20.1783c2.64969,6.0876,4.53449,9.7387,8.55159,9.3401s16.0791-19.2386,16.0791-19.2386Z" transform="translate(-55.3492 -104.00002)"/>
              <path class="cls-5" d="M489.93469,234.3053s9.476,23.3547,24.3709,19.5303c5.0668-1.3009,5.0961-6.7436,4.4593-10.327-.8458-4.6746-3.7122-9.7985-1.3993-12.6186l-15.531-15.0121-3.4213-3.3126A64.429,64.429,0,0,1,489.93469,234.3053Z" transform="translate(-55.3492 -104.00002)"/>
              <path class="cls-12" d="M518.76489,243.5086c-.8458-4.6746-3.7122-9.7985-1.3993-12.6186l-15.531-15.0121c-.8107,1.4177-1.1392,3.7267-.7887,7.1846C502.86319,241.2901,513.13289,243.6359,518.76489,243.5086Z" transform="translate(-55.3492 -104.00002)"/>
              <path class="cls-5" d="M534.73319,194.327s2.499,30.926-8.5571,40.1112c-9.6087,7.9828-26.0879-7.4434-27.5232-16.3597,0,0-5.367-2.6791-5.694-8.6173s6.1616-5.1903,8.6803,3.9976c0,0,4.9086-1.3074,3.597-13.1431,3.6199,1.9887,6.8385.5459,9.7785-3.2789,0,0,2.9997,6.1526,10.5921-3.1624C525.60679,193.8744,529.906,197.8541,534.73319,194.327Z" transform="translate(-55.3492 -104.00002)"/>
            </g>
          </g>
          <g>
            <g>
              <path class="cls-15" d="M456.10269,385.759v.016a21.52335,21.52335,0,0,1-1.9806,5.2012c-7.7776,14.2186-41.4643,11.8838-41.4643,11.8838h-76.89c-31.81879,0-44.572-.789-47.6155-10.7244a12.973,12.973,0,0,1-.4186-1.6908c-2.15769-11.5455,8.5827-49.113,28.4372-74.8772,10.1608-13.1719,20.6596-20.1121,30.0153-23.7352a60.35443,60.35443,0,0,1,22.3665-3.9129c9.7582,0,17.6324.7246,24.315,2.2865,17.93831,4.2028,27.3261,14.3474,41.3998,32.3341C451.48119,344.5201,459.95119,370.3327,456.10269,385.759Z" transform="translate(-55.3492 -104.00002)"/>
              <path class="cls-16" d="M320.87189,376.6372c8.3438-13.1227,10.9674-31.3273,13.2856-49.803l7.2462,37.5727h62.8002l11.5402-37.5727c-.2724,17.5605,2.13691,34.7831,10.4667,51.2599C426.21079,378.0941,385.14719,424.5616,320.87189,376.6372Z" transform="translate(-55.3492 -104.00002)"/>
              <path class="cls-17" d="M339.93839,402.86h-4.1706c-31.81879,0-44.572-.789-47.6155-10.7244-1.6585-7.8097.451-16.0221,9.9676-18.4697,14.911-3.8324,40.8684,11.2719,40.8684,11.2719Z" transform="translate(-55.3492 -104.00002)"/>
              <path class="cls-18" d="M456.10269,385.759s.0161,0,0,.016a21.52335,21.52335,0,0,1-1.9806,5.2012c-7.7776,14.2186-41.4643,11.8838-41.4643,11.8838h-22.8174l2.8985-19.3232s40.4498-18.7273,54.94211-12.8821C454.76619,373.5048,456.94,379.4306,456.10269,385.759Z" transform="translate(-55.3492 -104.00002)"/>
              <path class="cls-19" d="M392.86769,290.206c-.6764,9.0336-4.4122,25.4905-22.6081,25.4905-19.1782,0-23.2361-16.2154-24.0734-23.8641a60.35443,60.35443,0,0,1,22.3665-3.9129C378.31089,287.9195,386.18509,288.6441,392.86769,290.206Z" transform="translate(-55.3492 -104.00002)"/>
            </g>
            <g>
              <path class="cls-3" d="M409.43729,402.8519h-73.6695a3.22048,3.22048,0,0,1-3.2205-3.2205h0a3.22054,3.22054,0,0,1,3.2205-3.2205h73.6695a3.22054,3.22054,0,0,1,3.2205,3.2205h0A3.22048,3.22048,0,0,1,409.43729,402.8519Z" transform="translate(-55.3492 -104.00002)"/>
              <path class="cls-20" d="M418.35809,347.4669l-.2737,1.6747v.0161l-7.6326,47.2612h-75.0866l-7.5521-48.9842a3.97363,3.97363,0,0,1,3.91291-4.5731h82.71919A3.96722,3.96722,0,0,1,418.35809,347.4669Z" transform="translate(-55.3492 -104.00002)"/>
              <path class="cls-21" d="M418.08439,349.1577l-7.6326,47.2612h-74.684l25.3133-2.6408A68.08236,68.08236,0,0,0,418.08439,349.1577Z" transform="translate(-55.3492 -104.00002)"/>
            </g>
            <g>
              <g>
                <path class="cls-22" d="M369.95359,308.8529h-.4991a17.6,17.6,0,0,1-7.2462-1.4654,13.069,13.069,0,0,1-7.4877-12.2541c.0161-.5314.0161-1.0467.0161-1.5619.0161-4.2995-.25769-7.8742-.25769-7.8742V283.765l27.05239-1.2077a62.39314,62.39314,0,0,0,1.079,10.1285c.016.0483.016.0806.0321.1288A13.41378,13.41378,0,0,1,369.95359,308.8529Z" transform="translate(-55.3492 -104.00002)"/>
                <path class="cls-23" d="M382.61039,292.6858c-11.2719,13.2364-22.8497,5.5072-27.8737.8857.0161-4.2995-.25769-7.8742-.25769-7.8742V283.765l27.05239-1.2077A62.39314,62.39314,0,0,0,382.61039,292.6858Z" transform="translate(-55.3492 -104.00002)"/>
              </g>
              <g>
                <path class="cls-22" d="M346.20049,270.6152s8.3872,23.6447,22.3764,23.6447,19.8054-25.4614,19.8054-25.4614v-22.142h-43.2548Z" transform="translate(-55.3492 -104.00002)"/>
                <path class="cls-22" d="M341.69939,257.2752s-4.1201.7538-3.4156,5.4839,4.9986,10.4667,8.4875,7.4475Z" transform="translate(-55.3492 -104.00002)"/>
                <path class="cls-22" d="M391.64809,255.2974s4.1843.1864,4.1297,4.9684-3.5284,11.0493-7.3955,8.5327Z" transform="translate(-55.3492 -104.00002)"/>
                <path class="cls-24" d="M391.64809,255.2974a110.65172,110.65172,0,0,1-3.2658,13.5011s-3.3149-.6677-4.3885-9.3899a11.84293,11.84293,0,0,1-11.6596-5.3717s-1.0736,6.7094-7.98419,1.9457c-4.60831,3.7626-10.05581,4.158-16.23691,1.6103,0,0,1.0395,8.7953-1.9126,13.0223,0,0-1.073-3.475-4.5011-13.34a3.31979,3.31979,0,0,0-2.4122,1.3942s-7.4109-14.4954-3.922-21.4732,8.1855-4.294,8.1855-4.294-1.7444-9.5274,8.5881-13.0163,10.3325-8.1855,11.9428-7.2462,2.2812,4.4282,2.2812,4.4282,17.8471-1.8786,22.6778,17.3104c0,0,12.8897.4116,5.241,22.0159C394.28159,256.3942,393.77829,255.4987,391.64809,255.2974Z" transform="translate(-55.3492 -104.00002)"/>
              </g>
            </g>
          </g>
          <path class="cls-4" d="M408.63219,282.5573" transform="translate(-55.3492 -104.00002)"/>
          <g>
            <path class="cls-25" d="M322.69349,275.3941h-67.4399a3.97218,3.97218,0,0,0-3.9722,3.9722v40.2521a3.9722,3.9722,0,0,0,3.9722,3.9723H301.773l12.13239,10.7536a1.19119,1.19119,0,0,0,1.9158-1.2811l-3.2789-9.4725h10.1512a3.97222,3.97222,0,0,0,3.9723-3.9723V279.3663A3.9722,3.9722,0,0,0,322.69349,275.3941Z" transform="translate(-55.3492 -104.00002)"/>
            <g class="cls-26">
              <path class="cls-27" d="M276.17409,286.1633h-15.5359a1.05919,1.05919,0,0,1-1.05919-1.0593h0a1.05917,1.05917,0,0,1,1.05919-1.0592h15.5359a1.05926,1.05926,0,0,1,1.0593,1.0592h0A1.05928,1.05928,0,0,1,276.17409,286.1633Z" transform="translate(-55.3492 -104.00002)"/>
              <path class="cls-27" d="M314.48429,295.3436h-45.0189a1.0592,1.0592,0,0,1-1.0592-1.0593h0a1.05917,1.05917,0,0,1,1.0592-1.0592h45.0189a1.05917,1.05917,0,0,1,1.0592,1.0592h0A1.0592,1.0592,0,0,1,314.48429,295.3436Z" transform="translate(-55.3492 -104.00002)"/>
              <path class="cls-27" d="M314.48429,301.8758h-53.8461a1.05925,1.05925,0,0,1-1.05919-1.0593h0a1.05925,1.05925,0,0,1,1.05919-1.0593h53.8461a1.05926,1.05926,0,0,1,1.0592,1.0593h0A1.05926,1.05926,0,0,1,314.48429,301.8758Z" transform="translate(-55.3492 -104.00002)"/>
              <path class="cls-27" d="M314.48429,308.4079h-53.8461a1.05925,1.05925,0,0,1-1.05919-1.0593h0a1.05917,1.05917,0,0,1,1.05919-1.0592h53.8461a1.05917,1.05917,0,0,1,1.0592,1.0592h0A1.05926,1.05926,0,0,1,314.48429,308.4079Z" transform="translate(-55.3492 -104.00002)"/>
              <path class="cls-27" d="M314.48429,314.94h-53.8461a1.05917,1.05917,0,0,1-1.05919-1.0592h0a1.05919,1.05919,0,0,1,1.05919-1.0593h53.8461a1.0592,1.0592,0,0,1,1.0592,1.0593h0A1.05917,1.05917,0,0,1,314.48429,314.94Z" transform="translate(-55.3492 -104.00002)"/>
            </g>
          </g>
          <g>
            <path class="cls-28" d="M76.817,298.85188H566.3366a1.7472,1.7472,0,0,1,1.7472,1.7472v6.9724a1.7471,1.7471,0,0,1-1.7471,1.7471H76.817a1.74712,1.74712,0,0,1-1.74712-1.74712V300.599a1.7471,1.7471,0,0,1,1.7471-1.7471Z"/>
            <g>
              <path class="cls-29" d="M445.22929,273.03718h20.9334a0,0,0,0,1,0,0v18.1155a7.6487,7.6487,0,0,1-7.6487,7.6487h-5.636a7.6487,7.6487,0,0,1-7.6487-7.6487v-18.1155A0,0,0,0,1,445.22929,273.03718Z"/>
              <path class="cls-30" d="M507.22079,377.0372v-5.5856a1.66063,1.66063,0,0,1,1.6606-1.6606h2.1135a1.66054,1.66054,0,0,0,1.6606-1.6605V366.017a1.66062,1.66062,0,0,0-1.6606-1.6606h-6.7933a8.45385,8.45385,0,0,1-8.4539-8.4539h0a8.45391,8.45391,0,0,1,8.4539-8.4539H513.209a1.66054,1.66054,0,0,0,1.66059-1.6605v-.7548a8.75579,8.75579,0,0,1,8.7558-8.7558h0a8.75579,8.75579,0,0,1,8.7558,8.7558h0a9.46025,9.46025,0,0,1-9.4603,9.4602h-15.851a1.66063,1.66063,0,0,0-1.6606,1.6606h0a1.66063,1.66063,0,0,0,1.6606,1.6606H515.725a5.78691,5.78691,0,0,1,5.78689,5.7869v3.6231a5.78691,5.78691,0,0,1-5.78689,5.7869h0a1.66055,1.66055,0,0,0-1.66061,1.6605v2.3651Z" transform="translate(-55.3492 -104.00002)"/>
            </g>
          </g>
          <g>
            <g>
              <path class="cls-25" d="M381.85319,166.30718h54.9504a3.8243,3.8243,0,0,1,3.8243,3.8243v69.4426a3.8244,3.8244,0,0,1-3.8244,3.8244h-54.9502a3.8244,3.8244,0,0,1-3.8244-3.8244v-69.4426A3.8243,3.8243,0,0,1,381.85319,166.30718Z"/>
              <path class="cls-31" d="M495.64189,344.8494h-54.9502a4.63541,4.63541,0,0,1-4.6295-4.6295V270.7774a4.63541,4.63541,0,0,1,4.6295-4.6295h54.9502a4.63541,4.63541,0,0,1,4.6295,4.6295v69.4425A4.63541,4.63541,0,0,1,495.64189,344.8494Zm-54.9502-77.0912a3.022,3.022,0,0,0-3.0192,3.0192v69.4425a3.02205,3.02205,0,0,0,3.0192,3.0193h54.9502a3.02205,3.02205,0,0,0,3.0192-3.0193V270.7774a3.022,3.022,0,0,0-3.0192-3.0192Z" transform="translate(-55.3492 -104.00002)"/>
              <g class="cls-26">
                <path class="cls-32" d="M454.983,294.9738H442.77079v-14.626H454.983Zm-10.60191-1.6103h8.9917V281.958h-8.9917Z" transform="translate(-55.3492 -104.00002)"/>
                <path class="cls-33" d="M451.91029,290.4371l-3.6325-4.0493,1.19821-1.0756,2.20159,2.4579a21.45345,21.45345,0,0,1,9.0373-6.5559l.6132,1.4876c-6.4677,2.6639-8.8422,6.7242-8.8643,6.765Z" transform="translate(-55.3492 -104.00002)"/>
                <path class="cls-27" d="M486.12619,285.8257h-18.9445a1.19573,1.19573,0,0,1-1.19569-1.1958h0a1.19573,1.19573,0,0,1,1.19569-1.1958h18.9445a1.19574,1.19574,0,0,1,1.1957,1.1958h0A1.19574,1.19574,0,0,1,486.12619,285.8257Z" transform="translate(-55.3492 -104.00002)"/>
                <path class="cls-27" d="M486.12619,291.6329h-18.9445a1.19573,1.19573,0,0,1-1.19569-1.1958h0a1.19573,1.19573,0,0,1,1.19569-1.1958h18.9445a1.19574,1.19574,0,0,1,1.1957,1.1958h0A1.19574,1.19574,0,0,1,486.12619,291.6329Z" transform="translate(-55.3492 -104.00002)"/>
              </g>
              <g class="cls-26">
                <path class="cls-32" d="M454.983,317.3833H442.77079v-14.626H454.983Zm-10.60191-1.6103h8.9917V304.3675h-8.9917Z" transform="translate(-55.3492 -104.00002)"/>
                <path class="cls-33" d="M451.91029,312.8466l-3.6325-4.0493,1.19821-1.0756,2.20159,2.4579a21.45259,21.45259,0,0,1,9.0373-6.5559l.6132,1.4876c-6.4677,2.6639-8.8422,6.7241-8.8643,6.765Z" transform="translate(-55.3492 -104.00002)"/>
                <path class="cls-27" d="M486.12619,308.2351h-18.9445a1.19565,1.19565,0,0,1-1.19569-1.1957h0a1.19573,1.19573,0,0,1,1.19569-1.1958h18.9445a1.19574,1.19574,0,0,1,1.1957,1.1958h0A1.19566,1.19566,0,0,1,486.12619,308.2351Z" transform="translate(-55.3492 -104.00002)"/>
                <path class="cls-27" d="M486.12619,314.0423h-18.9445a1.19565,1.19565,0,0,1-1.19569-1.1957h0a1.19573,1.19573,0,0,1,1.19569-1.1958h18.9445a1.19574,1.19574,0,0,1,1.1957,1.1958h0A1.19566,1.19566,0,0,1,486.12619,314.0423Z" transform="translate(-55.3492 -104.00002)"/>
              </g>
              <g class="cls-26">
                <path class="cls-32" d="M454.983,339.7928H442.77079V325.1667H454.983Zm-10.60191-1.6103h8.9917V326.777h-8.9917Z" transform="translate(-55.3492 -104.00002)"/>
                <path class="cls-33" d="M451.91029,335.256l-3.6325-4.0492,1.19821-1.0756,2.20159,2.4578a21.4535,21.4535,0,0,1,9.0373-6.5558l.6132,1.4876c-6.4677,2.6639-8.8422,6.7241-8.8643,6.765Z" transform="translate(-55.3492 -104.00002)"/>
                <path class="cls-27" d="M486.12619,330.6446h-18.9445a1.19565,1.19565,0,0,1-1.19569-1.1957h0a1.19567,1.19567,0,0,1,1.19569-1.1958h18.9445a1.19568,1.19568,0,0,1,1.1957,1.1958h0A1.19566,1.19566,0,0,1,486.12619,330.6446Z" transform="translate(-55.3492 -104.00002)"/>
                <path class="cls-27" d="M486.12619,336.4518h-18.9445a1.19573,1.19573,0,0,1-1.19569-1.1958h0a1.19565,1.19565,0,0,1,1.19569-1.1957h18.9445a1.19566,1.19566,0,0,1,1.1957,1.1957h0A1.19574,1.19574,0,0,1,486.12619,336.4518Z" transform="translate(-55.3492 -104.00002)"/>
              </g>
            </g>
            <g>
              <path class="cls-25" d="M574.89038,60.11468h54.9503a3.8244,3.8244,0,0,1,3.8244,3.8244v69.4425a3.8244,3.8244,0,0,1-3.8244,3.8244h-54.9502a3.8244,3.8244,0,0,1-3.8244-3.8244V63.939A3.8243,3.8243,0,0,1,574.89038,60.11468Z"/>
              <path class="cls-31" d="M690.02128,237.6192h-54.9502a4.63489,4.63489,0,0,1-4.6295-4.6295V163.5472a4.635,4.635,0,0,1,4.6295-4.6296h54.9502a4.635,4.635,0,0,1,4.6295,4.6296v69.4425A4.63489,4.63489,0,0,1,690.02128,237.6192Zm-54.9502-77.0913a3.02259,3.02259,0,0,0-3.0193,3.0193v69.4425a3.02257,3.02257,0,0,0,3.0193,3.0192h54.9502a3.02248,3.02248,0,0,0,3.0192-3.0192V163.5472a3.0225,3.0225,0,0,0-3.0192-3.0193Z" transform="translate(-55.3492 -104.00002)"/>
              <g class="cls-34">
                <circle class="cls-35" cx="643.55926" cy="184.71267" r="9.66152" transform="translate(260.00628 664.29604) rotate(-76.66126)"/>
                <path class="cls-36" d="M646.10888,183.4379l6.441-11.4731c5.9043,1.476,8.7223,7.0449,5.9043,12.7478Z" transform="translate(-55.3492 -104.00002)"/>
                <g>
                  <path class="cls-27" d="M640.07038,204.8409a2.818,2.818,0,1,1-2.818-2.8179A2.818,2.818,0,0,1,640.07038,204.8409Z" transform="translate(-55.3492 -104.00002)"/>
                  <path class="cls-27" d="M640.07038,217.3205a2.818,2.818,0,1,1-2.818-2.818A2.818,2.818,0,0,1,640.07038,217.3205Z" transform="translate(-55.3492 -104.00002)"/>
                  <path class="cls-27" d="M676.838,207.6589H654.29428a2.81791,2.81791,0,0,1-2.8179-2.818h0a2.81789,2.81789,0,0,1,2.8179-2.8179H676.838a2.818,2.818,0,0,1,2.818,2.8179h0A2.818,2.818,0,0,1,676.838,207.6589Z" transform="translate(-55.3492 -104.00002)"/>
                  <path class="cls-27" d="M676.838,220.1384H654.29428a2.81789,2.81789,0,0,1-2.8179-2.8179h0a2.818,2.818,0,0,1,2.8179-2.818H676.838a2.81806,2.81806,0,0,1,2.818,2.818h0A2.818,2.818,0,0,1,676.838,220.1384Z" transform="translate(-55.3492 -104.00002)"/>
                  <path class="cls-27" d="M640.07038,230.0013a2.818,2.818,0,1,1-2.818-2.818A2.818,2.818,0,0,1,640.07038,230.0013Z" transform="translate(-55.3492 -104.00002)"/>
                  <path class="cls-27" d="M676.838,232.8192H654.29428a2.81789,2.81789,0,0,1-2.8179-2.8179h0a2.818,2.818,0,0,1,2.8179-2.818H676.838a2.81806,2.81806,0,0,1,2.818,2.818h0A2.818,2.818,0,0,1,676.838,232.8192Z" transform="translate(-55.3492 -104.00002)"/>
                </g>
              </g>
            </g>
            <g>
              <path class="cls-25" d="M104.90621,24.61038h54.9502a3.8244,3.8244,0,0,1,3.8244,3.8244v82.3246a3.8244,3.8244,0,0,1-3.8244,3.8244H104.90621a3.82441,3.82441,0,0,1-3.82441-3.82441V28.43479A3.82441,3.82441,0,0,1,104.90621,24.61038Z"/>
              <path class="cls-31" d="M211.71679,215.9003H156.7666a4.63444,4.63444,0,0,1-4.6295-4.6295V128.9462a4.63444,4.63444,0,0,1,4.6295-4.6295h54.95019a4.63438,4.63438,0,0,1,4.6295,4.6295v82.3246A4.63438,4.63438,0,0,1,211.71679,215.9003ZM156.7666,125.9269a3.02308,3.02308,0,0,0-3.0192,3.0193v82.3246a3.02308,3.02308,0,0,0,3.0192,3.0193h54.95019a3.02317,3.02317,0,0,0,3.0193-3.0193V128.9462a3.02317,3.02317,0,0,0-3.0193-3.0193Z" transform="translate(-55.3492 -104.00002)"/>
              <g>
                <path class="cls-35" d="M178.22477,154.32808h3.46611a0,0,0,0,1,0,0v12.14026a1.20778,1.20778,0,0,1-1.20778,1.20778h-1.05065a1.20768,1.20768,0,0,1-1.20768-1.20768V154.32808A0,0,0,0,1,178.22477,154.32808Z" transform="translate(-116.8572 56.13609) rotate(-41.61242)"/>
                <path class="cls-35" d="M171.4226,140.4861a9.259,9.259,0,1,0,9.259,9.259A9.26028,9.26028,0,0,0,171.4226,140.4861Zm0,15.5691a6.3101,6.3101,0,1,1,6.3101-6.3101A6.31237,6.31237,0,0,1,171.4226,156.0552Z" transform="translate(-55.3492 -104.00002)"/>
                <path class="cls-27" d="M208.93359,145.5853H194.3071a1.6774,1.6774,0,0,1-1.6774-1.6774h0a1.6774,1.6774,0,0,1,1.6774-1.6774h14.62649a1.67741,1.67741,0,0,1,1.67741,1.6774h0A1.67741,1.67741,0,0,1,208.93359,145.5853Z" transform="translate(-55.3492 -104.00002)"/>
                <path class="cls-27" d="M208.93359,154.3075H194.3071a1.67738,1.67738,0,0,1-1.6774-1.6773h0a1.6774,1.6774,0,0,1,1.6774-1.6774h14.62649a1.67741,1.67741,0,0,1,1.67741,1.6774h0A1.67738,1.67738,0,0,1,208.93359,154.3075Z" transform="translate(-55.3492 -104.00002)"/>
                <path class="cls-27" d="M208.93359,162.3588H194.3071a1.67738,1.67738,0,0,1-1.6774-1.6773h0a1.6774,1.6774,0,0,1,1.6774-1.6774h14.62649a1.67741,1.67741,0,0,1,1.67741,1.6774h0A1.67738,1.67738,0,0,1,208.93359,162.3588Z" transform="translate(-55.3492 -104.00002)"/>
                <path class="cls-27" d="M190.7176,184.7683H168.1739a1.91217,1.91217,0,0,1-1.9122-1.9122h0a1.91217,1.91217,0,0,1,1.9122-1.9122h22.5437a1.91215,1.91215,0,0,1,1.9121,1.9122h0A1.91215,1.91215,0,0,1,190.7176,184.7683Z" transform="translate(-55.3492 -104.00002)"/>
                <path class="cls-27" d="M190.7176,196.7446H168.1739a1.91217,1.91217,0,0,1-1.9122-1.9122h0a1.91215,1.91215,0,0,1,1.9122-1.9121h22.5437a1.91213,1.91213,0,0,1,1.9121,1.9121h0A1.91215,1.91215,0,0,1,190.7176,196.7446Z" transform="translate(-55.3492 -104.00002)"/>
                <path class="cls-27" d="M190.7176,208.721H168.1739a1.91224,1.91224,0,0,1-1.9122-1.9122h0a1.91217,1.91217,0,0,1,1.9122-1.9122h22.5437a1.91215,1.91215,0,0,1,1.9121,1.9122h0A1.91222,1.91222,0,0,1,190.7176,208.721Z" transform="translate(-55.3492 -104.00002)"/>
                <path class="cls-27" d="M208.38009,182.8561a3.06955,3.06955,0,1,1-3.0695-3.0695A3.06957,3.06957,0,0,1,208.38009,182.8561Z" transform="translate(-55.3492 -104.00002)"/>
                <path class="cls-27" d="M208.38009,194.8324a3.06955,3.06955,0,1,1-3.0695-3.0695A3.06957,3.06957,0,0,1,208.38009,194.8324Z" transform="translate(-55.3492 -104.00002)"/>
                <path class="cls-27" d="M208.38009,206.8088a3.06955,3.06955,0,1,1-3.0695-3.0696A3.06955,3.06955,0,0,1,208.38009,206.8088Z" transform="translate(-55.3492 -104.00002)"/>
              </g>
            </g>
            <g>
              <path class="cls-25" d="M327.70819,35.73128h100.6414a6.6424,6.6424,0,0,1,6.6424,6.6424v66.8257a6.6424,6.6424,0,0,1-6.6424,6.6424H327.70829a6.6424,6.6424,0,0,1-6.6424-6.6424V42.37358A6.6423,6.6423,0,0,1,327.70819,35.73128Z"/>
              <path class="cls-31" d="M487.188,216.9571H386.54659a7.45632,7.45632,0,0,1-7.4474-7.4475V142.6837a7.45623,7.45623,0,0,1,7.4474-7.4474H487.188a7.45625,7.45625,0,0,1,7.44749,7.4474v66.8259A7.45634,7.45634,0,0,1,487.188,216.9571ZM386.54659,136.8465a5.84348,5.84348,0,0,0-5.8372,5.8372v66.8259a5.84348,5.84348,0,0,0,5.8372,5.8372H487.188a5.84341,5.84341,0,0,0,5.83719-5.8372V142.6837a5.84341,5.84341,0,0,0-5.83719-5.8372Z" transform="translate(-55.3492 -104.00002)"/>
              <g>
                <path class="cls-37" d="M446.46149,156.0352h-55.7553a2.9186,2.9186,0,0,1-2.9186-2.9186h0a2.9186,2.9186,0,0,1,2.9186-2.9186h55.7553a2.9186,2.9186,0,0,1,2.9186,2.9186h0A2.9186,2.9186,0,0,1,446.46149,156.0352Z" transform="translate(-55.3492 -104.00002)"/>
                <path class="cls-32" d="M334.50148,62.30058h57.46631a2.0631,2.0631,0,0,1,2.0631,2.0631v28.4815a2.0632,2.0632,0,0,1-2.0632,2.0632H334.50148a2.06309,2.06309,0,0,1-2.06309-2.06309V64.36367A2.06309,2.06309,0,0,1,334.50148,62.30058Z"/>
                <path class="cls-37" d="M476.05009,156.0352h-16.5052a2.9186,2.9186,0,0,1-2.9186-2.9186h0a2.9186,2.9186,0,0,1,2.9186-2.9186h16.5052a2.91859,2.91859,0,0,1,2.9186,2.9186h0A2.91859,2.91859,0,0,1,476.05009,156.0352Z" transform="translate(-55.3492 -104.00002)"/>
                <path class="cls-37" d="M477.15709,171.534h-17.3438a1.81162,1.81162,0,0,1-1.8116-1.8116h0a1.81154,1.81154,0,0,1,1.8116-1.8115h17.3438a1.81154,1.81154,0,0,1,1.8116,1.8115h0A1.81162,1.81162,0,0,1,477.15709,171.534Z" transform="translate(-55.3492 -104.00002)"/>
                <path class="cls-37" d="M477.15709,179.7195h-17.3438a1.81162,1.81162,0,0,1-1.8116-1.8116h0a1.81154,1.81154,0,0,1,1.8116-1.8115h17.3438a1.81154,1.81154,0,0,1,1.8116,1.8115h0A1.81162,1.81162,0,0,1,477.15709,179.7195Z" transform="translate(-55.3492 -104.00002)"/>
                <path class="cls-37" d="M477.15709,187.905h-17.3438a1.81162,1.81162,0,0,1-1.8116-1.8116h0a1.81154,1.81154,0,0,1,1.8116-1.8115h17.3438a1.81154,1.81154,0,0,1,1.8116,1.8115h0A1.81162,1.81162,0,0,1,477.15709,187.905Z" transform="translate(-55.3492 -104.00002)"/>
                <path class="cls-37" d="M477.15709,196.0905h-17.3438a1.81162,1.81162,0,0,1-1.8116-1.8116h0a1.81154,1.81154,0,0,1,1.8116-1.8115h17.3438a1.81154,1.81154,0,0,1,1.8116,1.8115h0A1.81162,1.81162,0,0,1,477.15709,196.0905Z" transform="translate(-55.3492 -104.00002)"/>
                <path class="cls-37" d="M465.38209,211.6563h-64.2092a2.41539,2.41539,0,0,1-2.4154-2.4154h0a2.41539,2.41539,0,0,1,2.4154-2.4154h64.2092a2.41539,2.41539,0,0,1,2.4154,2.4154h0A2.41539,2.41539,0,0,1,465.38209,211.6563Z" transform="translate(-55.3492 -104.00002)"/>
              </g>
            </g>
            <g>
              <path class="cls-25" d="M10.0806,129.38958h95.2738a5.3676,5.3676,0,0,1,5.3676,5.3676v57.701a5.3675,5.3675,0,0,1-5.3675,5.3675H10.0806a5.3675,5.3675,0,0,1-5.3675-5.3675v-57.7011A5.3675,5.3675,0,0,1,10.0806,129.38958Z"/>
              <path class="cls-31" d="M156.7957,298.6708H61.5222a6.17983,6.17983,0,0,1-6.173-6.1722V234.7973a6.17929,6.17929,0,0,1,6.173-6.1721h95.2735a6.17929,6.17929,0,0,1,6.173,6.1721v57.7013A6.17983,6.17983,0,0,1,156.7957,298.6708ZM61.5222,230.2354a4.56748,4.56748,0,0,0-4.5627,4.5619v57.7013a4.5669,4.5669,0,0,0,4.5627,4.5619h95.2735a4.5669,4.5669,0,0,0,4.5627-4.5619V234.7973a4.56748,4.56748,0,0,0-4.5627-4.5619Z" transform="translate(-55.3492 -104.00002)"/>
              <g class="cls-34">
                <path class="cls-35" d="M98.2108,264.9829a13.66429,13.66429,0,1,1-5.2817-22.592l-4.3799,12.9466Z" transform="translate(-55.3492 -104.00002)"/>
                <path class="cls-36" d="M104.0157,254.2835a11.50971,11.50971,0,0,1-3.405,8.1912l-8.2049-8.1912,3.7195-10.9946A11.60672,11.60672,0,0,1,104.0157,254.2835Z" transform="translate(-55.3492 -104.00002)"/>
                <path class="cls-27" d="M150.1682,269.7982H118.7681V243.2886a.80515.80515,0,0,1,1.6103,0v24.8993h29.7898a.80515.80515,0,1,1,0,1.6103Z" transform="translate(-55.3492 -104.00002)"/>
                <rect class="cls-27" x="69.9944" y="152.14078" width="4.0257" height="12.0471"/>
                <rect class="cls-36" x="78.3141" y="146.02898" width="4.0257" height="18.1589"/>
                <rect class="cls-27" x="86.4996" y="155.10848" width="4.0257" height="9.0794"/>
                <path class="cls-27" d="M20.2804,175.28208H39.201a1.409,1.409,0,0,1,1.409,1.409v0A1.4089,1.4089,0,0,1,39.2011,178.1H20.2803a1.4089,1.4089,0,0,1-1.4089-1.4089v0A1.409,1.409,0,0,1,20.2804,175.28208Z"/>
                <path class="cls-27" d="M49.1279,175.28208H68.0485a1.4089,1.4089,0,0,1,1.4089,1.4089v.0001A1.4089,1.4089,0,0,1,68.0485,178.1H49.12779a1.4089,1.4089,0,0,1-1.4089-1.4089v0A1.409,1.409,0,0,1,49.1279,175.28208Z"/>
                <path class="cls-27" d="M76.2342,175.28208H95.1548a1.409,1.409,0,0,1,1.409,1.409v0A1.4089,1.4089,0,0,1,95.1549,178.1H76.23409a1.4089,1.4089,0,0,1-1.4089-1.4089v0a1.409,1.409,0,0,1,1.409-1.409Z"/>
                <path class="cls-27" d="M106.9625,292.1642H88.0419a1.409,1.409,0,0,1-1.409-1.409h0a1.409,1.409,0,0,1,1.409-1.409h18.9206a1.409,1.409,0,0,1,1.409,1.409h0A1.40909,1.40909,0,0,1,106.9625,292.1642Z" transform="translate(-55.3492 -104.00002)"/>
                <path class="cls-27" d="M134.0688,292.1642H115.1482a1.409,1.409,0,0,1-1.4089-1.409h0a1.40894,1.40894,0,0,1,1.4089-1.409h18.9206a1.409,1.409,0,0,1,1.409,1.409h0A1.409,1.409,0,0,1,134.0688,292.1642Z" transform="translate(-55.3492 -104.00002)"/>
              </g>
            </g>
          </g>
        </g>
      </g>
    </g>
  </g>
</svg>
