<svg xmlns="http://www.w3.org/2000/svg" xmlns:xlink="http://www.w3.org/1999/xlink" width="704" height="538" viewBox="0 0 704 538"><defs><style>.cls-1{isolation:isolate;}.cls-2{fill:#e4ebf7;}.cls-3{fill:#fff;}.cls-4{fill:#98b2d8;}.cls-5{fill:#b1c3e8;}.cls-6{fill:#b7cae5;}.cls-7{fill:#97b3d1;}.cls-8{fill:#ced9ea;}.cls-9{fill:#b6c5dd;}.cls-10{fill:#5d7ca0;}.cls-11{fill:#799cbf;}.cls-12{fill:#f2f4f9;}.cls-13{fill:#c1cfe5;}.cls-14{fill:url(#linear-gradient);}.cls-15,.cls-18{fill:#1f395e;}.cls-15{opacity:0.22;}.cls-15,.cls-24,.cls-25,.cls-31,.cls-33,.cls-35,.cls-36{mix-blend-mode:multiply;}.cls-16{fill:url(#linear-gradient-2);}.cls-17{fill:url(#linear-gradient-3);}.cls-19{fill:url(#linear-gradient-4);}.cls-20{fill:#3150bc;}.cls-21{fill:#feb19e;}.cls-22{fill:#ff856a;}.cls-23{fill:url(#linear-gradient-5);}.cls-24,.cls-26,.cls-36{fill:#9abced;}.cls-24{opacity:0.6;}.cls-27{fill:#c1c8d3;}.cls-28{fill:url(#linear-gradient-6);}.cls-29{fill:url(#linear-gradient-7);}.cls-30{fill:#4f7eb7;}.cls-31,.cls-34{fill:#7ca6d8;}.cls-31{opacity:0.71;}.cls-32{fill:#ea9ba1;}.cls-33,.cls-36{opacity:0.5;}.cls-35{fill:#e83f54;}</style><linearGradient id="linear-gradient" x1="349.0626" y1="455.6054" x2="349.0626" y2="333.857" gradientUnits="userSpaceOnUse"><stop offset="0" stop-color="#1f3a65"/><stop offset="1" stop-color="#294a7a"/></linearGradient><linearGradient id="linear-gradient-2" x1="284.7416" y1="465.0484" x2="284.7416" y2="432.3193" xlink:href="#linear-gradient"/><linearGradient id="linear-gradient-3" x1="404.9826" y1="465.0484" x2="404.9826" y2="432.3193" xlink:href="#linear-gradient"/><linearGradient id="linear-gradient-4" x1="371.5837" y1="451.1319" x2="331.6763" y2="387.7867" gradientUnits="userSpaceOnUse"><stop offset="0" stop-color="#3855e1"/><stop offset="1" stop-color="#5c7ef7"/></linearGradient><linearGradient id="linear-gradient-5" x1="342.3599" y1="287.8425" x2="341.0003" y2="234.8179" gradientUnits="userSpaceOnUse"><stop offset="0" stop-color="#3f2323"/><stop offset="1" stop-color="#5e3434"/></linearGradient><linearGradient id="linear-gradient-6" x1="490.2896" y1="447.2963" x2="513.3252" y2="447.2963" xlink:href="#linear-gradient"/><linearGradient id="linear-gradient-7" x1="525.6592" y1="358.5973" x2="493.1122" y2="423.1982" gradientUnits="userSpaceOnUse"><stop offset="0" stop-color="#e2e8f7"/><stop offset="1" stop-color="#fff"/></linearGradient></defs><title>intro-img</title><g class="cls-1"><g id="OBJECTS"><path class="cls-2" d="M625.4867,314.25a451.0553,451.0553,0,0,1-3.7034,62.4861c-.1772,1.3963-.3721,2.7924-.5847,4.1482-1.3114,9.045-2.9061,17.4832-4.7135,25.2736q-.4783,2.0034-.9569,3.9459c-6.946,27.7222-16.816,46.46-27.3414,53.38H146.0273s-37.69-37.3136-45.256-90.613c-.1948-1.3557-.3721-2.7115-.514-4.0873-2.9414-26.5285,1.79-56.74,22.15-88.1646a86.8391,86.8391,0,0,1,35.51-31.1216c1.0986-.5261,2.1795-1.0321,3.2959-1.5176,20.7851-9.2881,45.2029-12.2018,69.7269-12.6469,1.24-.02,2.4808-.0406,3.7212-.0406,14.601-.1214,29.1666.5666,42.97,1.1939,1.3113.0809,2.6048.1416,3.8983.2023,22.2913,1.0726,42.3856,1.8616,56.9688-1.1938h.0177c1.3467-.2833,2.6226-.6072,3.863-.9713h.0177c16.1425-4.5124,24.0987-14.974,18.3753-37.4754-11.0926-43.6471.2658-75.6389,24.9847-93.3042,1.2581-.9107,2.5693-1.7808,3.8983-2.61,13.9809-8.6607,31.6475-13.1934,51.6352-13.1326,1.4,0,2.8175.04,4.2528.0809,16.9931.5868,35.5457,4.4112,54.807,11.716a163.7468,163.7468,0,0,1,28.9716,14.3874c1.0987.6879,2.1972,1.3962,3.26,2.1246a176.506,176.506,0,0,1,44.5295,42.696c.8328,1.0928,1.63,2.2057,2.4277,3.3389C611.311,207.0639,625.1677,264.7949,625.4867,314.25Z"/><path class="cls-3" d="M616.4851,406.1574q-.4783,2.0034-.9569,3.9459A138.3743,138.3743,0,0,1,595.08,399.6619c-32.427-20.1137-73.7139-64.9142-86.2239-164.2283-5.3868-42.8175,1.4886-83.5913,20.4662-121.2487,1.0987.6879,2.1972,1.3962,3.26,2.1246-16.6566,33.0237-26.0125,72.5024-20.2182,118.5374,12.2974,97.5535,52.592,141.484,84.2394,161.1524A131.273,131.273,0,0,0,616.4851,406.1574Z"/><path class="cls-3" d="M621.7833,376.7356c-.1772,1.3963-.3721,2.7924-.5847,4.1482-20.484-10.9877-46.3016-34.8854-58.351-86.7683-11.6418-50.2438-6.9992-94.842,14.2643-135.11.8328,1.0928,1.63,2.2057,2.4277,3.3389-20.2183,39.0133-24.5241,82.1748-13.2545,130.7391C577.803,342.72,602.203,365.91,621.7833,376.7356Z"/><path class="cls-3" d="M428.4437,172.8059c1.7189,65.9261-4.8551,108.521-21.3167,138.1452-17.2413,31.0407-46,49.7987-93.2587,60.8268a113.996,113.996,0,0,1-26.048,3.096c-26.5972,0-51.6528-9.8949-73.6075-29.24-25.5341-22.5218-45.0789-56.4359-56.2955-96.1372,1.0986-.5261,2.1795-1.0321,3.2959-1.5176,10.9861,39.0335,30.1412,72.3809,55.1791,94.4575,28.1388,24.8286,61.6114,33.59,96.7672,25.3951,87.89-20.5386,115.0361-67.9091,111.74-194.9048-.9391-36.059,4.5717-64.5095,16.3907-84.9267,1.4,0,2.8175.04,4.2528.0809C433.2458,107.9119,427.5046,136.322,428.4437,172.8059Z"/><path class="cls-3" d="M318.7766,309.2312a60.8613,60.8613,0,0,1-11.27,1.0521c-28.3338,0-60.7785-19.6077-76.5668-74.9507,1.24-.02,2.4808-.0406,3.7212-.0406,17.4008,59.41,54.7007,75.3556,83.5306,69.9529,38.9479-7.2846,76.4072-53.0768,69.16-123.5962-3.1187-30.2516-3.26-56.0714-1.5948-77.9052,1.2581-.9107,2.5693-1.7808,3.8983-2.61-1.9314,22.2383-2.0023,48.7463,1.2227,80.05C398.3735,254.1917,359.3193,301.643,318.7766,309.2312Z"/><path class="cls-3" d="M342.3793,234.5231c-1.3645,7.1025-3.7567,14.3467-7.85,20.4375a31.6231,31.6231,0,0,1-22.6989,14.3062,24.437,24.437,0,0,1-3.4021.2429c-5.9716,0-11.447-2.3271-16.3021-6.9811-6.4146-6.1516-11.0926-15.7026-14.4948-26.0427,1.3113.0809,2.6048.1416,3.8983.2023,3.1541,9.1463,7.3359,17.4224,12.8823,22.7443,4.9615,4.7553,10.6849,6.7181,16.9754,5.8277a28.3085,28.3085,0,0,0,20.3246-12.7278,49.3274,49.3274,0,0,0,6.7865-17.038h.0177C339.863,235.2111,341.1389,234.8872,342.3793,234.5231Z"/><path class="cls-3" d="M204.7859,463.4836H200.923c-15.8946-41.563-38.8062-69.2649-68.1854-82.3975a99.9519,99.9519,0,0,0-31.9663-8.2155c-.1948-1.3557-.3721-2.7115-.514-4.0873a103.3047,103.3047,0,0,1,33.7739,8.539C164.704,391.0418,188.4837,419.9781,204.7859,463.4836Z"/><path class="cls-4" d="M128.0869,338.2218l-10.9507,12.89-4.5717-7.6691-1.5239-2.57c-4.873,1.3962-12.0671-9.49-14.9555-15.2978-2.8706-5.8276,8.6472-14.8121,8.6472-14.8121-1.8782-6.4347-9.4269-10.4818-9.6395-12.2625-.2126-1.76,1.6657-3.6626,8.5232,0,6.8753,3.6829,12.8468,16.6941,12.8468,16.6941,1.2226-3.784-4.2-14.023-3.2073-15.1764.9923-1.1331,6.3082.263,10.4014,10.1175,4.111,9.8748,1.6658,21.51,1.6658,21.51l.0531.1011Z"/><path class="cls-5" d="M104.3264,309.629s8.1368,10.6289,7.2593,14.8024-4.9751-.6695-4.9751-.6695,3.7655,4.9695,2.5473,6.6137-5.759-2.53-5.759-2.53,5.4267,7.7147,0,6.5765-12.2432-12.8259-7.0076-14.0011c0,0-.6339-8.5106,4.1282-5.6017C100.52,314.82,98.3874,307.7266,104.3264,309.629Z"/><path class="cls-6" d="M203.1948,463.5581s9.161-30.5551,4.3414-60.6852a1.4585,1.4585,0,0,1-.0355-.2023,1.68,1.68,0,0,0-.0355-.2429q-.2127-1.1838-.4253-2.3674a113.8405,113.8405,0,0,1-12.6519,10.5626c-8.8065,6.3336-20.5548,12.6267-29.574,9.6725-16.55-5.4029-40.7554-42.15-51.99-71.1671,0,0,5.6171-9.6117,16.8337-12.5659,0,0,22.4508,34.157,42.2437,42.2509a171.8312,171.8312,0,0,0,18.8893-35.7555c5.28-13.5575,13.2011-22.1372,23.1949-26.7508a48.2836,48.2836,0,0,1,18.907-4.2493l17.3475-9.2474a57.2734,57.2734,0,0,1,7.1943.6676c8.1333,1.2142,21.6533,4.6136,32.5865,14.1242,16.8337,14.65,41.0565,145.956,41.0565,145.956Z"/><path class="cls-7" d="M207.5007,402.6706c-.1418-.87-.3012-1.74-.4608-2.61a113.8405,113.8405,0,0,1-12.6519,10.5626l5.1211-50.0212C204.7187,383.5079,207.2171,400.6268,207.5007,402.6706Z"/><path class="cls-8" d="M257.4348,303.4779c-2.6757,19.4258-19.7043,37.3744-32.0017,37.1316-9.8877-.2025-11.3408-16.3906-11.4471-24.3025a48.2836,48.2836,0,0,1,18.907-4.2493l17.3475-9.2474A57.2734,57.2734,0,0,1,257.4348,303.4779Z"/><path class="cls-7" d="M227.9981,443.7045s39.0674-46.4267,40.7654-95.2438l11.5178,41.1448-4.43,42.837Z"/><path class="cls-4" d="M226.8638,463.5479H183.1184a10.1586,10.1586,0,0,1,6.8664-9.1058c6.7556-2.2764,11.0748-11.8881,31.3417-10.6234Z"/><path class="cls-9" d="M271.62,417.637s-20.6094,13.5347-53.0622,23.1464c0,0-4.5037,12.394,3.3964,22.7645h62.7875Z"/><path class="cls-10" d="M194.8793,275.7531s-9.3285-14.7055-8.1816-24.606,9.1735-7.5755,9.1735-7.5755-.3738-24.0586,19.1281-17.9073c0,0-.4293-7.3456,3.8292-7.1553s10.9361,11.3758,10.9361,11.3758,1.6574-8.2869,4.5415-6.3309,3.7739,10.5088,9.7976,14.6253,9.75,9.4447,5.0206,26.137-1.1813,17.8744-2.87,26.4449c-1.6041,8.1395-2.8857,13.0912-7.31,13.5483s-21.3588-19.9454-21.3588-19.9454Z"/><path class="cls-4" d="M250.2405,302.81s-10.8621,30.09-22.2736,27.8233c-5.67-1.1333-6.9284-5.0791-6.9815-9.6523-.0532-5.9694,1.9846-12.9706-1.0987-15.9047l13.68-22.1981,3.0124-4.8968A84.068,84.068,0,0,0,250.2405,302.81Z"/><path class="cls-11" d="M220.9854,320.9813c-.0532-5.9694,1.9846-12.9706-1.0987-15.9047l13.68-22.1981c1.1695,1.5582,2.0023,4.33,2.339,8.681C237.7128,314.4858,227.0987,319.8076,220.9854,320.9813Z"/><path class="cls-4" d="M193.5505,264.0535s3.6982,38.76,17.5481,47.4841c12.0368,7.5822,26.6554-15.3511,26.3619-26.6948a14.5068,14.5068,0,0,0,4.3709-11.9812c-.8752-7.4063-7.7333-4.95-8.5544,6.985,0,0-5.5758-.4537-6.6071-15.3715-3.5009,3.31-7.2781,2.29-11.2471-1.7364,0,0-1.9689,8.3024-12.1022-1.4C203.3206,261.3384,199.4976,267.2661,193.5505,264.0535Z"/><path class="cls-10" d="M520.2354,414.2248s17.8769,34.0625,24.0693,50.5878H481.2665a328.7658,328.7658,0,0,0-9.9078-39.0437Z"/><path class="cls-11" d="M495.6494,421.813c-3.45,13.0543-8.71,24.2-16.5141,32.665l2.1312,10.3346-76.2839-1.0752,8.4918-59.63Z"/><path class="cls-11" d="M615.3165,235.92s2.5248-18.06,7.5455-24.4676,18.7533-15.8868,20.3776-12.5142-12.1085,13.9475-12.1085,13.9475,6.2019-1.6863,11.5178,8.7685-11.8131,18.549-11.8131,18.549l-3.3962,8.7685-13.5851-9.78Z"/><path class="cls-4" d="M632.8836,213.2271s-7.6549,8.8887-6.5356,11.4286,5.3385-1.4513,5.3385-1.4513-3.4442,5.9869-.775,7.529,6.8023-3.6284,6.8023-3.6284-3.4443,5.4426-1.4638,6.44,12.5712-7.528,10.6769-9.5242-2.9275-.3633-2.9275-.3633,2.2162-4.2634,0-5.624c-2.4128-1.4814-3.6163,1.1792-3.6163,1.1792s1.8081-3.2656.3443-4.5356-4.5635.3629-4.5635.3629S637.18,209.6,632.8836,213.2271Z"/><path class="cls-4" d="M625.7784,213.0118c-2.3258-.7588-7.0511,4.7636-7.0511,4.7636-1.8583,2.7306-2.2384,8.1716-2.313,10.6805-.2382,7.0071-2.56,10.7351-2.56,10.7351l6.8943,4.9633c5.3387-7.8534,3.5921-17.9122,2.73-21.47C626.0811,218.2438,627.1658,213.4645,625.7784,213.0118Z"/><path class="cls-6" d="M630.2392,250.8261s-23.0355,70.0541-59.6444,76.2663c-16.373,2.7722-28.7413,3.0555-37.3885,2.5293-10.3129-.6069-15.3807-2.3877-15.7529-2.5091-.0177,0-.0177-.02-.0177-.02s-10.0471,21.3683-3.5439,52.0649c6.4854,30.6765,8.86,37.0911,8.86,37.0911s-49.3493,41.4414-89.4844,3.7029l-36.2191-64.3072-11.34-20.1543s10.4192-39.0739,39.7983-64.469l.0178-.02a84.5549,84.5549,0,0,1,41.783-20.0732,93.152,93.152,0,0,1,28.5641-.3036s7.9739,2.57,20.9448,7.993c6.9815,2.9138,15.4162,6.6574,24.8252,11.271,26.8808,13.1528,34.27,17.0784,34.27,17.0784s28.635-32.2548,36.0241-51.8221C611.9348,235.144,626.6953,236.8437,630.2392,250.8261Z"/><path class="cls-7" d="M445.4263,282.8114c-.1329,15.7007-3.0711,30.9122-4.3649,42.7276l22.7631-5.262,35.42,39.99s4.4875,11.7171-4.6482,13.7406c-7.1588,1.5856-40.6116,6.8986-40.6116,6.8986-7.7093,11.9826-11.1931,30.3127-15.0385,48.0994l-33.9636-67.392Z"/><path class="cls-8" d="M495.8708,286.5816c-15.859-4.5934-24.205-20.8827-28.5641-35.6543a93.152,93.152,0,0,1,28.5641-.3036s7.9739,2.57,20.9448,7.993C518.34,271.5469,517.79,292.9153,495.8708,286.5816Z"/><path class="cls-7" d="M537.5121,300.9081a223.1481,223.1481,0,0,0-4.3058,28.7136c-10.3129-.6069-15.3807-2.3877-15.7529-2.5091-.0177,0-.0177-.02-.0177-.02S526.4374,309.508,537.5121,300.9081Z"/><path class="cls-12" d="M498.1216,366.9006l-39.9438,6.62a2.0036,2.0036,0,0,1-2.205-1.88l-8.7945-69.1953a2.1946,2.1946,0,0,1,1.6461-2.518l39.9437-6.62a2.0036,2.0036,0,0,1,2.2051,1.88l8.7944,69.1951A2.1946,2.1946,0,0,1,498.1216,366.9006Z"/><path class="cls-4" d="M469.1436,323.1668l6.0544-2.698s5.7588-18.2117,12.9206-6.7452c0,0,4.9467-3.3724,4.799-5.2273s-.2215-4.5529-.2215-4.5529,10.0234,2.4737,7.78,18.4367S489.669,336.32,481.2521,336.4882L470.768,341.21Z"/><path class="cls-13" d="M473.0479,345.4254s-47.17,35.6543-67.5474,18.4545a85.9541,85.9541,0,0,1-8.4524-8.2358l-11.34-20.1543s10.4192-39.0739,39.7983-64.469l.0178-.02c9.7383-4.9961,19.9137-3.1771,20.4367,7.1252,1.246,24.5411-17.1341,39.6315-19.4089,50.7675l42.2791-9.7734S475.7059,327.4565,473.0479,345.4254Z"/><path class="cls-10" d="M528.4956,213.2845s6.7408-16.4463,3.9841-25.924-10.2573-5.4706-10.2573-5.4706-3.5942-23.71-21.7354-13.4807c0,0-.7878-7.3066-4.9392-6.2054S486.68,175.725,486.68,175.725s-2.9923-7.7833-5.503-5.243-1.9761,11.1319-7.2146,16.4684-8.021,11.37-.6274,26.7488,4.1034,17.3019,7.1735,25.3568c2.9158,7.65,4.99,12.238,9.41,11.7371s17.6938-24.1759,17.6938-24.1759Z"/><path class="cls-4" d="M478.5769,251.7462s10.4276,29.3484,26.8183,24.5425c5.5756-1.6347,5.6079-8.4742,4.9071-12.9773-.9307-5.8742-4.085-12.3131-1.54-15.8569L491.6718,228.59l-3.7648-4.1627A88.6115,88.6115,0,0,1,478.5769,251.7462Z"/><path class="cls-11" d="M510.3023,263.3114c-.9307-5.8742-4.085-12.3131-1.54-15.8569L491.6718,228.59c-.8921,1.7816-1.2536,4.6831-.8679,9.0284C492.8037,260.5236,504.1047,263.4714,510.3023,263.3114Z"/><path class="cls-4" d="M527.8742,201.5081s2.75,38.8627-9.4164,50.4052c-10.5737,10.0314-28.7077-9.3537-30.2872-20.5582a13.6881,13.6881,0,0,1-6.2658-10.8288c-.36-7.4622,6.78-6.5223,9.552,5.0235,0,0,5.4015-1.6429,3.9582-16.5161,3.9834,2.4991,7.5253.686,10.76-4.12,0,0,3.3009,7.7316,11.6558-3.974C517.8313,200.9393,522.5622,205.94,527.8742,201.5081Z"/><path class="cls-14" d="M441.3474,442.0684v.02a29.4992,29.4992,0,0,1-2.18,6.536c-8.5586,17.8676-45.6282,14.9336-45.6282,14.9336H308.9282c-35.0142,0-49.0481-.9915-52.3972-13.4767a18.2269,18.2269,0,0,1-.4606-2.1247c-2.3744-14.5085,9.4446-61.7171,31.2929-94.0934,11.1812-16.5522,22.7343-25.2735,33.03-29.8265a59.0267,59.0267,0,0,1,24.6126-4.917c10.7382,0,19.4031.9105,26.7568,2.8733,19.74,5.2813,30.07,18.0294,45.5573,40.6321C436.2618,390.2461,445.5824,422.6831,441.3474,442.0684Z"/><path class="cls-15" d="M292.5364,430.6056c9.1817-16.49,12.0688-39.367,14.62-62.5842l7.9738,47.2151h69.1068l12.6991-47.2151c-.3,22.0671,2.3515,43.71,11.5178,64.415C408.4537,432.4364,363.2664,490.8291,292.5364,430.6056Z"/><path class="cls-16" d="M313.5176,463.5581h-4.5894c-35.0142,0-49.0481-.9915-52.3972-13.4767-1.8251-9.8139.4963-20.1339,10.9686-23.21,16.4084-4.8159,44.9725,14.1647,44.9725,14.1647Z"/><path class="cls-17" d="M441.3474,442.0684s.0177,0,0,.02a29.4992,29.4992,0,0,1-2.18,6.536c-8.5586,17.8676-45.6282,14.9336-45.6282,14.9336H368.4309l3.19-24.2822s44.5118-23.5334,60.4595-16.1881C439.8767,426.6693,442.2688,434.1159,441.3474,442.0684Z"/><path class="cls-18" d="M371.7622,321.9931c-.7443,11.3519-4.8553,32.0322-24.8785,32.0322-21.1041,0-25.5695-20.3768-26.4909-29.9885a59.0267,59.0267,0,0,1,24.6126-4.917C355.7436,319.12,364.4085,320.03,371.7622,321.9931Z"/><path class="cls-3" d="M389.9958,463.5479H308.9282a3.8206,3.8206,0,0,1-3.5439-4.047h0a3.8207,3.8207,0,0,1,3.5439-4.047h81.0676a3.8207,3.8207,0,0,1,3.5439,4.047h0A3.8206,3.8206,0,0,1,389.9958,463.5479Z"/><path class="cls-19" d="M399.8124,393.9491l-.3012,2.1045v.02l-8.3991,59.39h-82.627l-8.31-61.5553c-.4075-3.0151,1.6479-5.7467,4.3059-5.7467h91.0261C398.2,388.162,400.2378,390.9139,399.8124,393.9491Z"/><path class="cls-20" d="M399.5112,396.0739l-8.3991,59.39H308.9282l27.8553-3.3186C365.383,448.7662,389.7476,426.9527,399.5112,396.0739Z"/><path class="cls-21" d="M346.547,345.4254h-.5492a17.3325,17.3325,0,0,1-7.9739-1.8415c-5.21-2.6711-8.3637-8.8831-8.24-15.3989.0177-.6678.0177-1.3153.0177-1.9627.0177-5.4029-.2836-9.895-.2836-9.895v-2.4282l29.7691-1.5177a89.1435,89.1435,0,0,0,1.1873,12.7279c.0176.0607.0176.1012.0353.1618C362.2113,335.49,355.655,345.1623,346.547,345.4254Z"/><path class="cls-22" d="M360.4748,325.1093c-12.4038,16.6333-25.1443,6.9205-30.6728,1.113.0177-5.4029-.2836-9.895-.2836-9.895v-2.4282l29.7691-1.5177A89.1435,89.1435,0,0,0,360.4748,325.1093Z"/><path class="cls-21" d="M320.4085,297.3746s9.2295,29.7127,24.6235,29.7127,21.7944-31.9957,21.7944-31.9957V267.2672H319.2278Z"/><path class="cls-21" d="M315.4554,280.611s-4.5338.9473-3.7586,6.8913,5.5006,13.1528,9.34,9.3588Z"/><path class="cls-21" d="M370.42,278.1257s4.6045.2342,4.5444,6.2434-3.8827,13.885-8.1381,10.7225Z"/><path class="cls-23" d="M370.42,278.1257a155.8439,155.8439,0,0,1-3.5937,16.9659s-3.6478-.839-4.8293-11.8c0,0-7.8837,1.7654-12.83-6.75,0,0-1.1815,8.4313-8.786,2.445-5.0711,4.7282-11.0657,5.2251-17.8675,2.0236,0,0,1.1439,11.0525-2.1047,16.3643,0,0-1.1807-4.3668-4.9531-16.7636a3.5276,3.5276,0,0,0-2.6544,1.752s-8.1551-18.2154-4.3159-26.9839,9.0075-5.396,9.0075-5.396-1.9195-11.9725,9.4506-16.3568,11.37-10.2862,13.1421-9.1058,2.51,5.5646,2.51,5.5646,19.6393-2.3607,24.9552,21.7529c0,0,14.1841.5172,5.7673,27.6659C373.3181,279.5039,372.7642,278.3786,370.42,278.1257Z"/><path class="cls-24" d="M294.5409,303.38H220.3285c-2.4141,0-4.3711,2.2348-4.3711,4.9916v50.5822c0,2.757,1.957,4.9918,4.3711,4.9918H271.52L284.87,377.4588c1.01,1.0218,2.5494-.154,2.1082-1.61L283.37,363.9455h11.1706c2.4142,0,4.3712-2.2348,4.3712-4.9918V308.3715C298.9121,305.6147,296.9551,303.38,294.5409,303.38Z"/><g class="cls-25"><path class="cls-26" d="M243.35,316.9129h-17.096a1.2566,1.2566,0,0,1-1.1656-1.3312h0a1.2565,1.2565,0,0,1,1.1656-1.331H243.35a1.2566,1.2566,0,0,1,1.1657,1.331h0A1.2567,1.2567,0,0,1,243.35,316.9129Z"/><path class="cls-26" d="M285.5073,328.4491h-49.54a1.2566,1.2566,0,0,1-1.1656-1.3311h0a1.2566,1.2566,0,0,1,1.1656-1.331h49.54a1.2565,1.2565,0,0,1,1.1656,1.331h0A1.2565,1.2565,0,0,1,285.5073,328.4491Z"/><path class="cls-26" d="M285.5073,336.6577H226.2539a1.2566,1.2566,0,0,1-1.1656-1.3311h0a1.2567,1.2567,0,0,1,1.1656-1.3312h59.2534a1.2567,1.2567,0,0,1,1.1656,1.3312h0A1.2566,1.2566,0,0,1,285.5073,336.6577Z"/><path class="cls-26" d="M285.5073,344.8662H226.2539a1.2566,1.2566,0,0,1-1.1656-1.3311h0a1.2566,1.2566,0,0,1,1.1656-1.3311h59.2534a1.2566,1.2566,0,0,1,1.1656,1.3311h0A1.2566,1.2566,0,0,1,285.5073,344.8662Z"/><path class="cls-26" d="M285.5073,353.0747H226.2539a1.2565,1.2565,0,0,1-1.1656-1.331h0a1.2566,1.2566,0,0,1,1.1656-1.3312h59.2534a1.2566,1.2566,0,0,1,1.1656,1.3312h0A1.2565,1.2565,0,0,1,285.5073,353.0747Z"/></g><path class="cls-27" d="M84.7049,463.5479H623.7343a1.7472,1.7472,0,0,1,1.7472,1.7472v9.6585a1.7471,1.7471,0,0,1-1.7471,1.7471H84.7049a1.7471,1.7471,0,0,1-1.7471-1.7471V465.295A1.7471,1.7471,0,0,1,84.7049,463.5479Z"/><path class="cls-28" d="M490.29,431.1082h23.0356a0,0,0,0,1,0,0v24.7275a7.6487,7.6487,0,0,1-7.6487,7.6487h-7.7382a7.6487,7.6487,0,0,1-7.6487-7.6487V431.1082A0,0,0,0,1,490.29,431.1082Z"/><path class="cls-29" d="M497.5989,431.1082v-7.019a1.97,1.97,0,0,1,1.8274-2.0868h2.3257a1.97,1.97,0,0,0,1.8274-2.0866V417.26a1.97,1.97,0,0,0-1.8274-2.0868h-7.4755c-5.1378,0-9.3028-4.7563-9.3028-10.6235h0c0-5.8671,4.165-10.6235,9.3028-10.6235h9.912a1.97,1.97,0,0,0,1.8273-2.0866v-.9485c0-6.0767,4.3138-11.0029,9.6351-11.0029h0c5.3213,0,9.6351,4.9262,9.6351,11.0029h0c0,6.5655-4.6608,11.888-10.41,11.888H497.4329a1.97,1.97,0,0,0-1.8274,2.0868h0a1.97,1.97,0,0,0,1.8274,2.0868h9.5243c3.5169,0,6.368,3.2558,6.368,7.272v4.5529c0,4.0162-2.8511,7.272-6.368,7.272h0a1.97,1.97,0,0,0-1.8274,2.0867v2.972Z"/><path class="cls-24" d="M420.165,296.9875h61.2368a3.8243,3.8243,0,0,1,3.8243,3.8243v89.227a3.8244,3.8244,0,0,1-3.8244,3.8244H420.1651a3.8244,3.8244,0,0,1-3.8244-3.8244v-89.227A3.8243,3.8243,0,0,1,420.165,296.9875Z"/><path class="cls-30" d="M484.8572,390.66H424.3888c-2.8085,0-5.0944-2.61-5.0944-5.8176V297.5784c0-3.2072,2.2859-5.8176,5.0944-5.8176h60.4684c2.8085,0,5.0944,2.61,5.0944,5.8176v87.2639C489.9516,388.05,487.6657,390.66,484.8572,390.66Zm-60.4684-96.8755a3.5851,3.5851,0,0,0-3.3224,3.794v87.2639a3.5853,3.5853,0,0,0,3.3224,3.7942h60.4684a3.5852,3.5852,0,0,0,3.3224-3.7942V297.5784a3.585,3.585,0,0,0-3.3224-3.794Z"/><g class="cls-25"><path class="cls-31" d="M440.1153,327.9844H426.6767v-18.38h13.4386Zm-11.6666-2.0235h9.8947V311.6283h-9.8947Z"/><path class="cls-32" d="M436.734,322.2835l-3.9973-5.0885,1.3186-1.3517,2.4226,3.0887a24.2272,24.2272,0,0,1,9.9449-8.2384l.6748,1.8694c-7.1172,3.3476-9.73,8.45-9.7545,8.5012Z"/><path class="cls-26" d="M474.386,316.4886H453.539a1.4186,1.4186,0,0,1-1.3158-1.5027h0a1.4186,1.4186,0,0,1,1.3158-1.5027h20.847a1.4185,1.4185,0,0,1,1.3157,1.5027h0A1.4185,1.4185,0,0,1,474.386,316.4886Z"/><path class="cls-26" d="M474.386,323.7862H453.539a1.4187,1.4187,0,0,1-1.3158-1.5027h0a1.4186,1.4186,0,0,1,1.3158-1.5027h20.847a1.4185,1.4185,0,0,1,1.3157,1.5027h0A1.4186,1.4186,0,0,1,474.386,323.7862Z"/></g><g class="cls-25"><path class="cls-31" d="M440.1153,356.145H426.6767v-18.38h13.4386Zm-11.6666-2.0235h9.8947V339.7889h-9.8947Z"/><path class="cls-32" d="M436.734,350.444l-3.9973-5.0885,1.3186-1.3516,2.4226,3.0887a24.2257,24.2257,0,0,1,9.9449-8.2384l.6748,1.8694c-7.1172,3.3475-9.73,8.45-9.7545,8.5011Z"/><path class="cls-26" d="M474.386,344.6491H453.539a1.4185,1.4185,0,0,1-1.3158-1.5026h0a1.4186,1.4186,0,0,1,1.3158-1.5027h20.847a1.4185,1.4185,0,0,1,1.3157,1.5027h0A1.4184,1.4184,0,0,1,474.386,344.6491Z"/><path class="cls-26" d="M474.386,351.9466H453.539a1.4185,1.4185,0,0,1-1.3158-1.5026h0a1.4186,1.4186,0,0,1,1.3158-1.5026h20.847a1.4185,1.4185,0,0,1,1.3157,1.5026h0A1.4184,1.4184,0,0,1,474.386,351.9466Z"/></g><g class="cls-25"><path class="cls-31" d="M440.1153,384.3056H426.6767v-18.38h13.4386Zm-11.6666-2.0236h9.8947V367.95h-9.8947Z"/><path class="cls-32" d="M436.734,378.6045l-3.9973-5.0884,1.3186-1.3516,2.4226,3.0885a24.2264,24.2264,0,0,1,9.9449-8.2382l.6748,1.8694c-7.1172,3.3475-9.73,8.45-9.7545,8.5011Z"/><path class="cls-26" d="M474.386,372.81H453.539a1.4184,1.4184,0,0,1-1.3158-1.5025h0a1.4185,1.4185,0,0,1,1.3158-1.5027h20.847a1.4185,1.4185,0,0,1,1.3157,1.5027h0A1.4183,1.4183,0,0,1,474.386,372.81Z"/><path class="cls-26" d="M474.386,380.1072H453.539a1.4186,1.4186,0,0,1-1.3158-1.5027h0a1.4185,1.4185,0,0,1,1.3158-1.5026h20.847a1.4184,1.4184,0,0,1,1.3157,1.5026h0A1.4185,1.4185,0,0,1,474.386,380.1072Z"/></g><path class="cls-24" d="M632.5875,163.5422h61.2367a3.8244,3.8244,0,0,1,3.8244,3.8244v89.2269a3.8244,3.8244,0,0,1-3.8244,3.8244H632.5876a3.8244,3.8244,0,0,1-3.8244-3.8244v-89.227A3.8243,3.8243,0,0,1,632.5875,163.5422Z"/><path class="cls-30" d="M698.7567,255.9106H638.2883c-2.8085,0-5.0944-2.6094-5.0944-5.8176V162.8291c0-3.2082,2.2859-5.8177,5.0944-5.8177h60.4684c2.8085,0,5.0944,2.6095,5.0944,5.8177V250.093C703.8511,253.3012,701.5652,255.9106,698.7567,255.9106Zm-60.4684-96.8757a3.5859,3.5859,0,0,0-3.3225,3.7942V250.093a3.5859,3.5859,0,0,0,3.3225,3.7941h60.4684a3.5857,3.5857,0,0,0,3.3224-3.7941V162.8291a3.5858,3.5858,0,0,0-3.3224-3.7942Z"/><g class="cls-33"><ellipse class="cls-34" cx="647.6289" cy="189.4264" rx="10.6318" ry="12.141"/><path class="cls-35" d="M650.4345,187.8245l7.0879-14.4175c6.4972,1.8548,9.5982,8.8528,6.4972,16.0193Z"/><path class="cls-26" d="M643.79,214.72a3.1282,3.1282,0,1,1-3.101-3.541A3.343,3.343,0,0,1,643.79,214.72Z"/><path class="cls-26" d="M643.79,230.4025a3.1283,3.1283,0,1,1-3.101-3.5412A3.3431,3.3431,0,0,1,643.79,230.4025Z"/><path class="cls-26" d="M684.25,218.2614H659.4419a3.3429,3.3429,0,0,1-3.1008-3.5412h0a3.3429,3.3429,0,0,1,3.1008-3.541H684.25a3.343,3.343,0,0,1,3.101,3.541h0A3.343,3.343,0,0,1,684.25,218.2614Z"/><path class="cls-26" d="M684.25,233.9436H659.4419a3.343,3.343,0,0,1-3.1008-3.5411h0a3.3431,3.3431,0,0,1,3.1008-3.5412H684.25a3.3432,3.3432,0,0,1,3.101,3.5412h0A3.3431,3.3431,0,0,1,684.25,233.9436Z"/><path class="cls-26" d="M643.79,246.3377a3.1283,3.1283,0,1,1-3.101-3.5412A3.3431,3.3431,0,0,1,643.79,246.3377Z"/><path class="cls-26" d="M684.25,249.8788H659.4419a3.343,3.343,0,0,1-3.1008-3.5411h0a3.3431,3.3431,0,0,1,3.1008-3.5412H684.25a3.3432,3.3432,0,0,1,3.101,3.5412h0A3.3431,3.3431,0,0,1,684.25,249.8788Z"/></g><rect class="cls-24" x="111.5819" y="118.9263" width="68.8854" height="113.0638" rx="3.8244"/><path class="cls-30" d="M172.42,228.6179H111.9512c-2.8093,0-5.0944-2.6094-5.0944-5.8176V119.3483c0-3.2082,2.2851-5.8176,5.0944-5.8176H172.42c2.8094,0,5.0944,2.6094,5.0944,5.8176V222.8C177.514,226.0085,175.229,228.6179,172.42,228.6179ZM111.9512,115.5541a3.5864,3.5864,0,0,0-3.3224,3.7942V222.8a3.5864,3.5864,0,0,0,3.3224,3.7941H172.42a3.5865,3.5865,0,0,0,3.3225-3.7941V119.3483a3.5865,3.5865,0,0,0-3.3225-3.7942Z"/><path class="cls-34" d="M142.8712,165.3712l-1.0457,1.0607a1.106,1.106,0,0,1-1.705-.1153l-8.9521-11.51,2.8519-2.8924,8.9519,11.51A1.52,1.52,0,0,1,142.8712,165.3712Z"/><path class="cls-34" d="M128.079,133.85c-5.6172,0-10.1888,5.2-10.1888,11.6352S122.4618,157.12,128.079,157.12c5.6348,0,10.1888-5.2005,10.1888-11.6352S133.7138,133.85,128.079,133.85Zm0,19.5647c-3.8249,0-6.9438-3.5431-6.9438-7.9295s3.1189-7.93,6.9438-7.93c3.8412,0,6.9438,3.543,6.9438,7.93S131.92,153.4144,128.079,153.4144Z"/><path class="cls-26" d="M169.3569,140.2575H153.2616a1.99,1.99,0,0,1-1.8458-2.1078h0a1.99,1.99,0,0,1,1.8458-2.1079h16.0953a1.99,1.99,0,0,1,1.8459,2.1079h0A1.99,1.99,0,0,1,169.3569,140.2575Z"/><path class="cls-26" d="M169.3569,151.2182H153.2616a1.99,1.99,0,0,1-1.8458-2.1078h0a1.99,1.99,0,0,1,1.8458-2.1079h16.0953a1.99,1.99,0,0,1,1.8459,2.1079h0A1.99,1.99,0,0,1,169.3569,151.2182Z"/><path class="cls-26" d="M169.3569,161.3357H153.2616a1.99,1.99,0,0,1-1.8458-2.1077h0a1.99,1.99,0,0,1,1.8458-2.1079h16.0953a1.99,1.99,0,0,1,1.8459,2.1079h0A1.99,1.99,0,0,1,169.3569,161.3357Z"/><path class="cls-26" d="M149.3116,189.4963H124.504a2.2685,2.2685,0,0,1-2.1042-2.4029h0a2.2685,2.2685,0,0,1,2.1042-2.403h24.8076a2.2685,2.2685,0,0,1,2.1042,2.403h0A2.2685,2.2685,0,0,1,149.3116,189.4963Z"/><path class="cls-26" d="M149.3116,204.5461H124.504a2.2685,2.2685,0,0,1-2.1042-2.4029h0a2.2684,2.2684,0,0,1,2.1042-2.4028h24.8076a2.2684,2.2684,0,0,1,2.1042,2.4028h0A2.2685,2.2685,0,0,1,149.3116,204.5461Z"/><path class="cls-26" d="M149.3116,219.5961H124.504a2.2685,2.2685,0,0,1-2.1042-2.4029h0a2.2685,2.2685,0,0,1,2.1042-2.403h24.8076a2.2685,2.2685,0,0,1,2.1042,2.403h0A2.2685,2.2685,0,0,1,149.3116,219.5961Z"/><path class="cls-26" d="M168.7479,187.0934a3.4076,3.4076,0,1,1-3.3778-3.8573A3.6415,3.6415,0,0,1,168.7479,187.0934Z"/><path class="cls-26" d="M168.7479,202.1432a3.4076,3.4076,0,1,1-3.3778-3.8572A3.6416,3.6416,0,0,1,168.7479,202.1432Z"/><path class="cls-26" d="M168.7479,217.1932a3.4076,3.4076,0,1,1-3.3778-3.8574A3.6415,3.6415,0,0,1,168.7479,217.1932Z"/><path class="cls-24" d="M360.3,132.9012H472.3818a6.6424,6.6424,0,0,1,6.6424,6.6424v87.3849a6.6424,6.6424,0,0,1-6.6424,6.6424H360.3a6.6424,6.6424,0,0,1-6.6424-6.6424v-87.385A6.6423,6.6423,0,0,1,360.3,132.9012Z"/><path class="cls-30" d="M475.5544,229.9459H364.8063c-4.5181,0-8.1953-4.1983-8.1953-9.3588V136.6113c0-5.1605,3.6772-9.3587,8.1953-9.3587H475.5544c4.5182,0,8.1954,4.1982,8.1954,9.3587v83.9758C483.75,225.7476,480.0726,229.9459,475.5544,229.9459Zm-110.7481-100.67c-3.5421,0-6.4234,3.29-6.4234,7.3352v83.9758c0,4.045,2.8813,7.3352,6.4234,7.3352H475.5544c3.5423,0,6.4234-3.29,6.4234-7.3352V136.6113c0-4.045-2.8811-7.3352-6.4234-7.3352Z"/><path class="cls-36" d="M430.738,153.3893H369.3836a3.4626,3.4626,0,0,1-3.2117-3.6677h0a3.4625,3.4625,0,0,1,3.2117-3.6676H430.738a3.4625,3.4625,0,0,1,3.2117,3.6676h0A3.4625,3.4625,0,0,1,430.738,153.3893Z"/><path class="cls-31" d="M368.235,166.2891h63.6516a2.0631,2.0631,0,0,1,2.0631,2.0631v36.85a2.0632,2.0632,0,0,1-2.0632,2.0632H368.235a2.0631,2.0631,0,0,1-2.0631-2.0631v-36.85A2.0631,2.0631,0,0,1,368.235,166.2891Z"/><path class="cls-36" d="M463.298,153.3893H445.1353a3.4625,3.4625,0,0,1-3.2117-3.6677h0a3.4625,3.4625,0,0,1,3.2117-3.6676H463.298a3.4625,3.4625,0,0,1,3.2117,3.6676h0A3.4625,3.4625,0,0,1,463.298,153.3893Z"/><path class="cls-36" d="M464.5162,172.8656H445.4306a2.1492,2.1492,0,0,1-1.9935-2.2765h0a2.1491,2.1491,0,0,1,1.9935-2.2764h19.0856a2.1491,2.1491,0,0,1,1.9935,2.2764h0A2.1492,2.1492,0,0,1,464.5162,172.8656Z"/><path class="cls-36" d="M464.5162,183.1518H445.4306a2.1492,2.1492,0,0,1-1.9935-2.2765h0a2.1491,2.1491,0,0,1,1.9935-2.2764h19.0856a2.1491,2.1491,0,0,1,1.9935,2.2764h0A2.1492,2.1492,0,0,1,464.5162,183.1518Z"/><path class="cls-36" d="M464.5162,193.438H445.4306a2.1492,2.1492,0,0,1-1.9935-2.2765h0a2.1491,2.1491,0,0,1,1.9935-2.2764h19.0856a2.1491,2.1491,0,0,1,1.9935,2.2764h0A2.1492,2.1492,0,0,1,464.5162,193.438Z"/><path class="cls-36" d="M464.5162,203.7242H445.4306a2.1492,2.1492,0,0,1-1.9935-2.2765h0a2.1491,2.1491,0,0,1,1.9935-2.2764h19.0856a2.1491,2.1491,0,0,1,1.9935,2.2764h0A2.1492,2.1492,0,0,1,464.5162,203.7242Z"/><path class="cls-36" d="M451.5587,223.2847H380.9014a2.8654,2.8654,0,0,1-2.6579-3.0353h0a2.8654,2.8654,0,0,1,2.6579-3.0352h70.6573a2.8654,2.8654,0,0,1,2.6579,3.0352h0A2.8654,2.8654,0,0,1,451.5587,223.2847Z"/><path class="cls-24" d="M10.9031,250.5955H116.8226a5.3676,5.3676,0,0,1,5.3676,5.3676v75.2641a5.3675,5.3675,0,0,1-5.3675,5.3675H10.9031a5.3675,5.3675,0,0,1-5.3675-5.3675V255.963A5.3675,5.3675,0,0,1,10.9031,250.5955Z"/><path class="cls-30" d="M111.9832,332.63H7.1421c-3.7456,0-6.7929-3.48-6.7929-7.7562v-72.51c0-4.2772,3.0473-7.7561,6.7929-7.7561H111.9832c3.7456,0,6.7929,3.4789,6.7929,7.7561v72.51C118.7761,329.15,115.7288,332.63,111.9832,332.63ZM7.1421,246.6319c-2.7688,0-5.0209,2.5719-5.0209,5.7326v72.51c0,3.1618,2.2521,5.7327,5.0209,5.7327H111.9832c2.7688,0,5.0209-2.5709,5.0209-5.7327v-72.51c0-3.1607-2.2521-5.7326-5.0209-5.7326Z"/><g class="cls-33"><path class="cls-34" d="M47.5151,290.2968a14.065,14.065,0,0,1-10.6319,5.0386c-8.2929,0-15.0263-7.6893-15.0263-17.1593,0-9.49,6.7334-17.18,15.0263-17.18a13.2736,13.2736,0,0,1,4.82.91l-4.82,16.2692Z"/><path class="cls-35" d="M53.9029,276.8516a15.5521,15.5521,0,0,1-3.7469,10.2933l-9.0289-10.2933,4.093-13.8162C50.2613,264.9771,53.9029,270.4246,53.9029,276.8516Z"/><path class="cls-26" d="M104.69,296.3479H70.1368V263.035a.8938.8938,0,1,1,1.772,0v31.2893H104.69a1.0207,1.0207,0,0,1,0,2.0236Z"/><rect class="cls-26" x="77.3726" y="279.1855" width="4.43" height="15.1388"/><rect class="cls-35" x="86.5278" y="271.5052" width="4.43" height="22.8191"/><rect class="cls-26" x="95.5353" y="282.9148" width="4.43" height="11.4095"/><path class="cls-26" d="M22.5247,308.2657H43.6284a1.409,1.409,0,0,1,1.409,1.409v.7232a1.4089,1.4089,0,0,1-1.4089,1.4089H22.5246a1.4089,1.4089,0,0,1-1.4089-1.4089v-.7232a1.409,1.409,0,0,1,1.409-1.409Z"/><path class="cls-26" d="M54.2692,308.2657H75.3728a1.4089,1.4089,0,0,1,1.4089,1.4089v.7233a1.4089,1.4089,0,0,1-1.4089,1.4089H54.2691a1.4089,1.4089,0,0,1-1.4089-1.4089v-.7232a1.409,1.409,0,0,1,1.409-1.409Z"/><path class="cls-26" d="M84.0975,308.2657h21.1037a1.409,1.409,0,0,1,1.409,1.409v.7232a1.4089,1.4089,0,0,1-1.4089,1.4089H84.0974a1.4089,1.4089,0,0,1-1.4089-1.4089v-.7232A1.409,1.409,0,0,1,84.0975,308.2657Z"/><path class="cls-26" d="M57.1456,324.4538H36.325a1.6715,1.6715,0,0,1-1.55-1.7706h0a1.6715,1.6715,0,0,1,1.55-1.7706H57.1456a1.6715,1.6715,0,0,1,1.55,1.7706h0A1.6716,1.6716,0,0,1,57.1456,324.4538Z"/><path class="cls-26" d="M86.974,324.4538H66.1534a1.6715,1.6715,0,0,1-1.55-1.7706h0a1.6715,1.6715,0,0,1,1.55-1.7706H86.974a1.6715,1.6715,0,0,1,1.55,1.7706h0A1.6715,1.6715,0,0,1,86.974,324.4538Z"/></g></g></g></svg>